<svg width="449" height="433" viewBox="0 0 449 433" fill="none" xmlns="http://www.w3.org/2000/svg">
<path d="M365.09 320.478C411.103 320.478 448.482 283.175 448.482 237.122V195.858C448.482 149.864 411.163 112.501 365.09 112.501H335.933V83.3563C335.933 37.3625 298.613 0 252.541 0H195.882C150.401 0 113.2 36.7122 112.549 82.0557H167.257V63.8474C167.257 58.7632 171.337 54.6841 176.424 54.6841H272.058C277.144 54.6841 281.225 58.7632 281.225 63.8474V83.8292C281.225 129.823 318.545 167.185 364.617 167.185H384.607C389.694 167.185 393.775 171.265 393.775 176.349V256.572C393.775 261.656 389.694 265.735 384.607 265.735H260.762C255.675 265.735 251.595 261.656 251.595 256.572V195.799C251.595 149.805 214.275 112.442 168.203 112.442H83.3326C37.3193 112.561 0 149.864 0 195.858V237.122C0 283.116 37.3193 320.478 83.3917 320.478H112.549V349.623C112.549 395.617 149.869 432.98 195.941 432.98H252.6C297.904 432.98 335.105 396.386 335.933 351.22H281.284V369.132C281.284 374.216 277.204 378.296 272.117 378.296H176.424C171.337 378.296 167.257 374.216 167.257 369.132V349.15C167.257 303.157 129.937 265.853 83.924 265.853H63.9337C58.8474 265.853 54.7665 261.774 54.7665 256.69V176.467C54.7665 171.383 58.8474 167.304 63.9337 167.304H187.72C192.806 167.304 196.887 171.383 196.887 176.467V237.24C196.887 283.234 234.207 320.596 280.279 320.596H365.149L365.09 320.478Z" fill="#114454"/>
</svg>
