<svg xmlns="http://www.w3.org/2000/svg" width="1375" height="84" fill="none"><path fill="#5FBDAD" fill-opacity=".2" fill-rule="evenodd" d="M1183.1 35.137c159.76-138.517 239.08-400.641 59.93-698.343-4.1-6.804-1.9-15.639 4.9-19.733 6.81-4.095 15.64-1.899 19.74 4.905 186 309.094 105.1 586.785-65.73 734.898-85.07 73.761-192.46 115.302-299.512 111.898-82.36-2.619-163.98-31.843-234.389-92.61-126.897 74.224-261.469 80.066-388.013 37.927C134.668 65.676.46-45.743-100.639-187.897c-4.603-6.471-3.088-15.448 3.383-20.05 6.472-4.603 15.448-3.088 20.05 3.384C21.337-66.005 150.96 40.792 289.112 86.796c116.625 38.835 239.718 34.555 356.835-31.129-13.4-13.327-26.319-27.904-38.679-43.766-60.764-77.989-70.412-159.331-47.547-220.116 22.8-60.614 78.321-100.29 143.522-90.758 64.561 9.439 111.763 62.664 121.714 128.465 10.036 66.373-17.513 144.71-99.085 207.576a564.18 564.18 0 0 1-32.202 23.084c63.884 52.587 136.635 77.545 209.673 79.868 99.048 3.149 199.538-35.328 279.758-104.883Zm-511.689 5.21c12.385-7.965 24.692-16.643 36.906-26.056 74.552-57.456 96.456-125.937 88.206-180.499-8.337-55.134-47.163-96.96-97.441-104.311-49.638-7.257-93.585 22.284-112.447 72.428-18.798 49.973-12.304 120.931 43.316 192.318 13.209 16.953 27.065 32.305 41.46 46.12ZM220.438-641.342c-140.166-30.549-316.445 33.426-407.89 255.611-3.023 7.343-11.425 10.846-18.769 7.824-7.343-3.023-10.846-11.425-7.823-18.769 96.406-234.24 285.954-306.468 440.606-272.763 76.881 16.756 145.026 59.754 187.706 121.774 42.863 62.283 59.466 142.96 34.306 233.314-18.8 67.514-61.014 108.144-105.872 121.293-44.723 13.109-91.954-1.717-114.541-44.183-22.702-42.68-7.667-90.705 27.105-122.913 34.992-32.41 90.82-50.347 154.77-36.325 7.756 1.701 12.666 9.368 10.965 17.124-1.701 7.757-9.368 12.666-17.124 10.965-55.327-12.131-101.403 3.707-129.07 29.333-27.885 25.829-36.263 60.101-21.258 88.312 15.119 28.426 47.127 40.039 81.064 30.092 33.801-9.908 69.668-41.831 86.259-101.413 22.931-82.346 7.627-154.197-30.292-209.297-38.102-55.365-99.614-94.608-170.142-109.979ZM-11.073 176.51C141.933 198.299 226.5 345.663 164.308 481.638c-3.303 7.221-.126 15.753 7.095 19.056 7.221 3.303 15.753.126 19.056-7.095 70.764-154.719-26.852-321.26-197.478-345.558-7.861-1.119-15.142 4.346-16.261 12.208-1.12 7.861 4.345 15.142 12.207 16.261Z" clip-rule="evenodd"/></svg>