<svg xmlns="http://www.w3.org/2000/svg" width="1440" height="1024" fill="none"><g stroke-linecap="round" stroke-width="56" opacity=".5" style="mix-blend-mode:overlay"><path stroke="#006778" d="M-403.558 1107.97c921.849 192.25 949.953-717.698 754.9-620.925-195.053 96.774-20.436 505.28 273.403 487.439 222.487-13.508 359.9-250.396 375.735-405.792 33.95-333.077-226.479-487.864-398.479-436.53-205 61.182 52.57 248.5 214.5 54 161.931-194.5 169.457-532.727 22.014-672.743"/><path stroke="#006778" d="M308.981 181.543c-76.533 158.444-253 249.5-409.968 189.509-156.969-59.992-134.031-272.01-45.532-395.509 88.5-123.5 258.061-210.884 380-183.5 121.94 27.383 152.034 231.056 75.5 389.5Z"/><path stroke="#006778" d="M1531.81-133.467c-458.59 248.797-373.12 738.472 13.22 724.144 149.7-5.551 214.69-154.961 91.43-236.218-196.3-129.398-633.12 323.799-307.83 583.604 325.29 259.807 570.71-85.387 403.18-119.535-167.52-34.149-166.01 509.242 302.1 370.462"/></g><defs><linearGradient id="a" x1="846.5" x2="332.5" y1="100.5" y2="970.5" gradientUnits="userSpaceOnUse"><stop stop-color="#98EBBB"/><stop offset="1" stop-color="#5FBDAD"/></linearGradient><linearGradient id="b" x1="40" x2="351" y1="390" y2="44" gradientUnits="userSpaceOnUse"><stop stop-color="#98EBBB"/><stop offset="1" stop-color="#5FBDAD"/></linearGradient><linearGradient id="c" x1="1252" x2="1338" y1="891" y2="85" gradientUnits="userSpaceOnUse"><stop stop-color="#98EBBB"/><stop offset="1" stop-color="#5FBDAD"/></linearGradient></defs></svg>
