<svg width="1260" height="434" viewBox="0 0 1260 434" fill="none" xmlns="http://www.w3.org/2000/svg">
<g clip-path="url(#clip0_101_99)">
<path d="M366.915 321.249C413.109 321.249 450.634 283.946 450.634 237.893V196.629C450.634 150.635 413.168 113.272 366.915 113.272H337.643V84.1273C337.643 38.1335 300.177 0.770996 253.924 0.770996H197.043C151.384 0.770996 114.037 37.4832 113.384 82.8267H168.306V64.6184C168.306 59.5342 172.402 55.4551 177.509 55.4551H273.518C278.624 55.4551 282.721 59.5342 282.721 64.6184V84.6002C282.721 130.594 320.187 167.956 366.44 167.956H386.509C391.615 167.956 395.712 172.036 395.712 177.12V257.343C395.712 262.427 391.615 266.506 386.509 266.506H262.177C257.071 266.506 252.974 262.427 252.974 257.343V196.57C252.974 150.576 215.509 113.213 169.256 113.213H84.0524C37.8587 113.213 0.393066 150.517 0.393066 196.51V237.775C0.393066 283.768 37.8587 321.131 84.1118 321.131H113.384V350.276C113.384 396.27 150.849 433.632 197.102 433.632H253.984C299.465 433.632 336.812 397.038 337.643 351.872H282.781V369.785C282.781 374.869 278.684 378.948 273.577 378.948H177.509C172.402 378.948 168.306 374.869 168.306 369.785V349.803C168.306 303.809 130.84 266.506 84.6462 266.506H64.5774C59.4712 266.506 55.3743 262.427 55.3743 257.343V177.12C55.3743 172.036 59.4712 167.956 64.5774 167.956H188.849C193.956 167.956 198.052 172.036 198.052 177.12V237.893C198.052 283.887 235.518 321.249 281.771 321.249H366.974H366.915Z" fill="#114454"/>
<path d="M712.715 321.367H542.131C540.231 321.367 538.568 320.658 537.143 319.18C535.659 317.702 534.946 315.928 534.946 313.8V57.3464C534.946 55.2181 535.659 53.4446 537.143 51.9667C538.628 50.4887 540.29 49.7793 542.131 49.7793H590.699C592.837 49.7793 594.618 50.4887 596.103 51.9667C597.587 53.4446 598.299 55.2181 598.299 57.3464V259.884C598.299 262.013 599.012 263.845 600.496 265.264C601.981 266.742 603.643 267.451 605.484 267.451H712.656C714.793 267.451 716.634 268.161 718.059 269.639C719.543 271.117 720.256 272.89 720.256 275.019V314.155C720.256 316.046 719.543 317.702 718.059 319.121C716.574 320.598 714.793 321.308 712.656 321.308L712.715 321.367Z" fill="#114454"/>
<path d="M812.94 68.5199C812.94 77.3285 809.675 84.9547 803.084 91.4577C796.553 97.9606 788.834 101.271 780.046 101.271C771.259 101.271 763.54 98.0198 756.949 91.4577C750.418 84.9547 747.093 77.2694 747.093 68.5199C747.093 59.7705 750.359 52.0851 756.949 45.523C763.54 38.961 771.199 35.7095 780.046 35.7095C788.893 35.7095 796.553 38.961 803.084 45.523C809.615 52.026 812.94 59.7113 812.94 68.5199ZM802.075 321.367H755.94C754.04 321.367 752.378 320.658 750.953 319.18C749.468 317.702 748.756 315.928 748.756 313.8V127.224C748.756 125.096 749.468 123.322 750.953 121.844C752.437 120.366 754.099 119.657 755.94 119.657H802.075C804.212 119.657 806.053 120.366 807.478 121.844C808.962 123.322 809.675 125.096 809.675 127.224V313.8C809.675 315.692 808.962 317.406 807.478 319.003C805.993 320.599 804.212 321.426 802.075 321.426V321.367Z" fill="#114454"/>
<path d="M962.446 321.367H911.087C909.484 321.367 907.999 320.776 906.693 319.594C905.328 318.411 904.259 316.756 903.487 314.628L836.453 130.475C835.384 127.519 835.503 125.036 836.868 122.908C838.234 120.78 840.193 119.716 842.865 119.716H888.228C890.068 119.716 891.79 120.307 893.215 121.489C894.699 122.672 895.828 124.504 896.599 126.869L937.509 246.287C938.043 247.351 938.518 247.884 938.934 247.884C939.349 247.884 939.646 247.351 939.943 246.287L983.703 126.455C984.771 123.795 985.84 122.021 986.909 121.076C987.978 120.13 989.462 119.657 991.303 119.657H1036.67C1039.34 119.657 1041.24 120.603 1042.31 122.435C1043.37 124.327 1043.37 126.455 1042.31 128.82L970.106 314.569C969.334 316.697 968.206 318.352 966.899 319.534C965.534 320.717 964.109 321.308 962.506 321.308L962.446 321.367Z" fill="#114454"/>
<path d="M1153.46 116.464C1183.97 116.464 1209.27 126.337 1229.52 146.023C1249.7 165.71 1259.8 190.48 1259.8 220.335C1259.8 250.189 1249.7 275.019 1229.52 294.823C1209.33 314.687 1183.97 324.559 1153.46 324.559C1122.94 324.559 1097.94 314.628 1077.63 294.823C1057.33 274.96 1047.17 250.13 1047.17 220.335C1047.17 190.539 1057.27 166.064 1077.46 146.201C1097.64 126.337 1123 116.464 1153.46 116.464ZM1107.74 220.335C1107.74 234.168 1112.19 245.755 1121.16 255.096C1130.12 264.437 1140.87 269.048 1153.46 269.048C1166.04 269.048 1177.15 264.377 1185.93 255.096C1194.78 245.755 1199.17 234.168 1199.17 220.335C1199.17 206.501 1194.78 195.387 1185.93 186.164C1177.09 177.001 1166.28 172.39 1153.46 172.39C1140.63 172.39 1130.12 177.001 1121.16 186.164C1112.19 195.328 1107.74 206.737 1107.74 220.335Z" fill="#114454"/>
</g>
<defs>
<clipPath id="clip0_101_99">
<rect width="1259.34" height="432.921" fill="white" transform="translate(0.393066 0.830078)"/>
</clipPath>
</defs>
</svg>
