<svg xmlns="http://www.w3.org/2000/svg" width="80" height="42" viewBox="0 0 80 42" fill="none">
<g id="Brand-Logo">
<path id="Vector" d="M25.7351 26.6893C28.2392 26.6893 30.2734 24.6478 30.2734 22.1275V19.8692C30.2734 17.3521 28.2424 15.3074 25.7351 15.3074H24.1484V13.7124C24.1484 11.1953 22.1174 9.15057 19.6101 9.15057H16.5267C14.0516 9.15057 12.0271 11.1597 11.9917 13.6412H14.9689V12.6447C14.9689 12.3665 15.191 12.1433 15.4678 12.1433H20.6723C20.9491 12.1433 21.1711 12.3665 21.1711 12.6447V13.7383C21.1711 16.2554 23.2021 18.3001 25.7094 18.3001H26.7973C27.0741 18.3001 27.2962 18.5233 27.2962 18.8016V23.1919C27.2962 23.4701 27.0741 23.6934 26.7973 23.6934H20.0575C19.7807 23.6934 19.5586 23.4701 19.5586 23.1919V19.866C19.5586 17.3489 17.5277 15.3042 15.0204 15.3042H10.4017C7.89761 15.3042 5.86667 17.3457 5.86667 19.8627V22.121C5.86667 24.6381 7.89761 26.6828 10.4049 26.6828H11.9917V28.2778C11.9917 30.7949 14.0226 32.8396 16.5299 32.8396H19.6133C22.0788 32.8396 24.1033 30.837 24.1484 28.3652H21.1744V29.3455C21.1744 29.6237 20.9523 29.847 20.6755 29.847H15.4678C15.191 29.847 14.9689 29.6237 14.9689 29.3455V28.252C14.9689 25.7349 12.9379 23.6934 10.4339 23.6934H9.34598C9.06918 23.6934 8.8471 23.4701 8.8471 23.1919V18.8016C8.8471 18.5233 9.06918 18.3001 9.34598 18.3001H16.0825C16.3593 18.3001 16.5814 18.5233 16.5814 18.8016V22.1275C16.5814 24.6446 18.6124 26.6893 21.1196 26.6893H25.7384H25.7351Z" fill="#ABEDC7"/>
<path id="Vector_2" d="M44.4803 26.6958H35.2332C35.1302 26.6958 35.0401 26.657 34.9628 26.5761C34.8824 26.4952 34.8438 26.3982 34.8438 26.2817V12.2469C34.8438 12.1304 34.8824 12.0333 34.9628 11.9524C35.0433 11.8716 35.1334 11.8327 35.2332 11.8327H37.866C37.9819 11.8327 38.0785 11.8716 38.1589 11.9524C38.2394 12.0333 38.278 12.1304 38.278 12.2469V23.3311C38.278 23.4476 38.3166 23.5479 38.3971 23.6255C38.4776 23.7064 38.5677 23.7452 38.6675 23.7452H44.477C44.5929 23.7452 44.6927 23.784 44.7699 23.8649C44.8504 23.9458 44.889 24.0429 44.889 24.1593V26.3011C44.889 26.4047 44.8504 26.4952 44.7699 26.5729C44.6895 26.6538 44.5929 26.6926 44.477 26.6926L44.4803 26.6958Z" fill="#EFF7E7"/>
<path id="Vector_3" d="M49.9132 12.8583C49.9132 13.3403 49.7362 13.7577 49.3789 14.1136C49.0248 14.4695 48.6064 14.6506 48.1301 14.6506C47.6537 14.6506 47.2353 14.4727 46.878 14.1136C46.524 13.7577 46.3438 13.3371 46.3438 12.8583C46.3438 12.3794 46.5208 11.9588 46.878 11.5997C47.2353 11.2406 47.6505 11.0627 48.1301 11.0627C48.6096 11.0627 49.0248 11.2406 49.3789 11.5997C49.7329 11.9556 49.9132 12.3762 49.9132 12.8583ZM49.3242 26.6958H46.8233C46.7203 26.6958 46.6302 26.6569 46.553 26.576C46.4725 26.4952 46.4339 26.3981 46.4339 26.2816V16.0709C46.4339 15.9545 46.4725 15.8574 46.553 15.7765C46.6334 15.6956 46.7235 15.6568 46.8233 15.6568H49.3242C49.44 15.6568 49.5398 15.6956 49.6171 15.7765C49.6975 15.8574 49.7362 15.9545 49.7362 16.0709V26.2816C49.7362 26.3852 49.6975 26.479 49.6171 26.5663C49.5366 26.6537 49.44 26.699 49.3242 26.699V26.6958Z" fill="#EFF7E7"/>
<path id="Vector_4" d="M58.0177 26.6959H55.2336C55.1467 26.6959 55.0662 26.6635 54.9954 26.5988C54.9214 26.5341 54.8634 26.4435 54.8216 26.327L51.1878 16.249C51.1298 16.0872 51.1363 15.9513 51.2103 15.8349C51.2843 15.7184 51.3905 15.6602 51.5354 15.6602H53.9944C54.0942 15.6602 54.1875 15.6925 54.2648 15.7572C54.3452 15.8219 54.4064 15.9222 54.4482 16.0516L56.6658 22.587C56.6948 22.6452 56.7206 22.6743 56.7431 22.6743C56.7656 22.6743 56.7817 22.6452 56.7978 22.587L59.1699 16.029C59.2279 15.8834 59.2858 15.7863 59.3437 15.7346C59.4017 15.6828 59.4821 15.6569 59.5819 15.6569H62.0409C62.1858 15.6569 62.2887 15.7087 62.3467 15.809C62.4046 15.9125 62.4046 16.029 62.3467 16.1584L58.4329 26.3238C58.391 26.4403 58.3299 26.5309 58.2591 26.5956C58.185 26.6603 58.1078 26.6926 58.0209 26.6926L58.0177 26.6959Z" fill="#EFF7E7"/>
<path id="Vector_5" d="M68.3722 15.4821C70.0266 15.4821 71.3977 16.0224 72.4953 17.0998C73.5896 18.1771 74.1368 19.5327 74.1368 21.1666C74.1368 22.8004 73.5896 24.1592 72.4953 25.2431C71.4009 26.3301 70.0266 26.8704 68.3722 26.8704C66.7179 26.8704 65.3628 26.3269 64.2621 25.2431C63.1613 24.156 62.6109 22.7972 62.6109 21.1666C62.6109 19.536 63.1581 18.1965 64.2524 17.1095C65.3467 16.0224 66.7211 15.4821 68.3722 15.4821ZM65.8939 21.1666C65.8939 21.9236 66.1353 22.5577 66.6213 23.0689C67.1073 23.5801 67.6899 23.8325 68.3722 23.8325C69.0546 23.8325 69.6565 23.5769 70.1328 23.0689C70.6124 22.5577 70.8506 21.9236 70.8506 21.1666C70.8506 20.4095 70.6124 19.8012 70.1328 19.2965C69.6532 18.7951 69.0675 18.5427 68.3722 18.5427C67.677 18.5427 67.1073 18.7951 66.6213 19.2965C66.1353 19.798 65.8939 20.4224 65.8939 21.1666Z" fill="#EFF7E7"/>
</g>
</svg>