<svg width="256" height="88" viewBox="0 0 256 88" fill="none" xmlns="http://www.w3.org/2000/svg">
<g clip-path="url(#clip0_101_51)">
<path d="M74.5067 65.1318C83.897 65.1318 91.5251 57.5491 91.5251 48.188V39.8001C91.5251 30.451 83.9091 22.8563 74.5067 22.8563H68.5563V16.9319C68.5563 7.58274 60.9403 -0.0119629 51.538 -0.0119629H39.9751C30.6934 -0.0119629 23.1016 7.45055 22.9688 16.6675H34.1333V12.9663C34.1333 11.9329 34.9661 11.1037 36.0042 11.1037H55.521C56.559 11.1037 57.3918 11.9329 57.3918 12.9663V17.028C57.3918 26.3772 65.0078 33.9719 74.4102 33.9719H78.4898C79.5278 33.9719 80.3606 34.8011 80.3606 35.8345V52.1415C80.3606 53.175 79.5278 54.0041 78.4898 54.0041H53.2157C52.1777 54.0041 51.3448 53.175 51.3448 52.1415V39.7881C51.3448 30.4389 43.7288 22.8442 34.3265 22.8442H17.0063C7.61603 22.8442 0 30.4269 0 39.7761V48.1639C0 57.5131 7.61603 65.1078 17.0184 65.1078H22.9688V71.0321C22.9688 80.3813 30.5848 87.976 39.9872 87.976H51.55C60.7955 87.976 68.3874 80.5375 68.5563 71.3566H57.4039V74.9977C57.4039 76.0312 56.571 76.8604 55.533 76.8604H36.0042C34.9661 76.8604 34.1333 76.0312 34.1333 74.9977V70.936C34.1333 61.5868 26.5173 54.0041 17.127 54.0041H13.0474C12.0094 54.0041 11.1766 53.175 11.1766 52.1415V35.8345C11.1766 34.8011 12.0094 33.9719 13.0474 33.9719H38.3095C39.3475 33.9719 40.1803 34.8011 40.1803 35.8345V48.188C40.1803 57.5371 47.7963 65.1318 57.1987 65.1318H74.5188H74.5067Z" fill="#ABEDC7"/>
<path d="M144.801 65.156H110.125C109.739 65.156 109.401 65.0118 109.111 64.7114C108.809 64.4109 108.664 64.0504 108.664 63.6178V11.4884C108.664 11.0558 108.809 10.6952 109.111 10.3948C109.413 10.0944 109.751 9.9502 110.125 9.9502H119.998C120.432 9.9502 120.794 10.0944 121.096 10.3948C121.398 10.6952 121.543 11.0558 121.543 11.4884V52.6584C121.543 53.091 121.688 53.4635 121.989 53.7519C122.291 54.0523 122.629 54.1965 123.003 54.1965H144.789C145.224 54.1965 145.598 54.3407 145.888 54.6412C146.189 54.9416 146.334 55.3021 146.334 55.7347V63.6899C146.334 64.0745 146.189 64.4109 145.888 64.6993C145.586 64.9998 145.224 65.144 144.789 65.144L144.801 65.156Z" fill="#EFF7E7"/>
<path d="M165.175 13.7595C165.175 15.55 164.511 17.1002 163.171 18.4221C161.844 19.7439 160.275 20.4169 158.488 20.4169C156.702 20.4169 155.133 19.7559 153.793 18.4221C152.465 17.1002 151.79 15.538 151.79 13.7595C151.79 11.981 152.453 10.4188 153.793 9.0849C155.133 7.75102 156.69 7.09009 158.488 7.09009C160.287 7.09009 161.844 7.75102 163.171 9.0849C164.499 10.4068 165.175 11.969 165.175 13.7595ZM162.966 65.1559H153.588C153.202 65.1559 152.864 65.0117 152.574 64.7113C152.272 64.4109 152.128 64.0503 152.128 63.6177V25.6923C152.128 25.2597 152.272 24.8992 152.574 24.5988C152.876 24.2983 153.214 24.1541 153.588 24.1541H162.966C163.401 24.1541 163.775 24.2983 164.065 24.5988C164.366 24.8992 164.511 25.2597 164.511 25.6923V63.6177C164.511 64.0023 164.366 64.3508 164.065 64.6752C163.763 64.9997 163.401 65.1679 162.966 65.1679V65.1559Z" fill="#EFF7E7"/>
<path d="M195.567 65.1561H185.126C184.8 65.1561 184.499 65.0359 184.233 64.7956C183.956 64.5552 183.738 64.2188 183.581 63.7861L169.955 26.3534C169.737 25.7525 169.762 25.2478 170.039 24.8152C170.317 24.3826 170.715 24.1663 171.258 24.1663H180.479C180.854 24.1663 181.204 24.2865 181.493 24.5268C181.795 24.7672 182.024 25.1397 182.181 25.6204L190.497 49.8946C190.606 50.1109 190.703 50.219 190.787 50.219C190.872 50.219 190.932 50.1109 190.992 49.8946L199.888 25.5362C200.105 24.9955 200.322 24.635 200.539 24.4427C200.757 24.2504 201.058 24.1543 201.433 24.1543H210.654C211.197 24.1543 211.583 24.3466 211.801 24.7191C212.018 25.1036 212.018 25.5362 211.801 26.0169L197.124 63.7741C196.967 64.2067 196.737 64.5432 196.472 64.7835C196.194 65.0239 195.905 65.1441 195.579 65.1441L195.567 65.1561Z" fill="#EFF7E7"/>
<path d="M234.395 23.5054C240.599 23.5054 245.741 25.5122 249.857 29.5138C253.96 33.5155 256.012 38.5506 256.012 44.6191C256.012 50.6877 253.96 55.7348 249.857 59.7605C245.753 63.7981 240.599 65.805 234.395 65.805C228.191 65.805 223.11 63.7861 218.982 59.7605C214.854 55.7228 212.79 50.6757 212.79 44.6191C212.79 38.5626 214.842 33.5876 218.946 29.5499C223.05 25.5122 228.203 23.5054 234.395 23.5054ZM225.101 44.6191C225.101 47.4311 226.007 49.7864 227.829 51.6851C229.652 53.5838 231.836 54.5211 234.395 54.5211C236.954 54.5211 239.211 53.5717 240.997 51.6851C242.796 49.7864 243.689 47.4311 243.689 44.6191C243.689 41.8072 242.796 39.548 240.997 37.6733C239.199 35.8107 237.002 34.8734 234.395 34.8734C231.788 34.8734 229.652 35.8107 227.829 37.6733C226.007 39.536 225.101 41.8552 225.101 44.6191Z" fill="#EFF7E7"/>
</g>
<defs>
<clipPath id="clip0_101_51">
<rect width="256" height="88" fill="white"/>
</clipPath>
</defs>
</svg>
