<svg width="80" height="42" viewBox="0 0 80 42" fill="none" xmlns="http://www.w3.org/2000/svg">
<path d="M25.7347 26.6354C28.2388 26.6354 30.2729 24.6133 30.2729 22.117V19.8802C30.2729 17.3871 28.242 15.3619 25.7347 15.3619H24.1479V13.782C24.1479 11.2889 22.117 9.26367 19.6097 9.26367H16.5262C14.0511 9.26367 12.0266 11.2537 11.9912 13.7115H14.9684V12.7245C14.9684 12.449 15.1905 12.2278 15.4673 12.2278H20.6718C20.9486 12.2278 21.1707 12.449 21.1707 12.7245V13.8077C21.1707 16.3008 23.2016 18.326 25.7089 18.326H26.7968C27.0736 18.326 27.2957 18.5472 27.2957 18.8227V23.1713C27.2957 23.4469 27.0736 23.668 26.7968 23.668H20.0571C19.7803 23.668 19.5582 23.4469 19.5582 23.1713V19.877C19.5582 17.3839 17.5272 15.3587 15.0199 15.3587H10.4012C7.89715 15.3587 5.86621 17.3807 5.86621 19.8738V22.1106C5.86621 24.6037 7.89715 26.6289 10.4044 26.6289H11.9912V28.2088C11.9912 30.7019 14.0222 32.7271 16.5295 32.7271H19.6129C22.0783 32.7271 24.1028 30.7435 24.1479 28.2953H21.1739V29.2663C21.1739 29.5418 20.9518 29.763 20.675 29.763H15.4673C15.1905 29.763 14.9684 29.5418 14.9684 29.2663V28.1831C14.9684 25.69 12.9375 23.668 10.4334 23.668H9.34553C9.06873 23.668 8.84664 23.4469 8.84664 23.1713V18.8227C8.84664 18.5472 9.06873 18.326 9.34553 18.326H16.0821C16.3589 18.326 16.581 18.5472 16.581 18.8227V22.117C16.581 24.6101 18.6119 26.6354 21.1192 26.6354H25.7379H25.7347Z" fill="#375D68"/>
<path d="M25.7347 26.6388C28.2388 26.6388 30.2729 24.6167 30.2729 22.1204V19.8836C30.2729 17.3905 28.242 15.3653 25.7347 15.3653H24.1479V13.7855C24.1479 11.2923 22.117 9.26709 19.6097 9.26709H16.5262C14.0511 9.26709 12.0266 11.2571 11.9912 13.715H14.9684V12.728C14.9684 12.4524 15.1905 12.2313 15.4673 12.2313H20.6718C20.9486 12.2313 21.1707 12.4524 21.1707 12.728V13.8111C21.1707 16.3042 23.2016 18.3295 25.7089 18.3295H26.7968C27.0736 18.3295 27.2957 18.5506 27.2957 18.8262V23.1747C27.2957 23.4503 27.0736 23.6714 26.7968 23.6714H20.0571C19.7803 23.6714 19.5582 23.4503 19.5582 23.1747V19.8804C19.5582 17.3873 17.5272 15.3621 15.0199 15.3621H10.4012C7.89715 15.3621 5.86621 17.3841 5.86621 19.8772V22.114C5.86621 24.6071 7.89715 26.6324 10.4044 26.6324H11.9912V28.2122C11.9912 30.7053 14.0222 32.7306 16.5295 32.7306H19.6129C22.0783 32.7306 24.1028 30.747 24.1479 28.2987H21.1739V29.2697C21.1739 29.5453 20.9518 29.7664 20.675 29.7664H15.4673C15.1905 29.7664 14.9684 29.5453 14.9684 29.2697V28.1865C14.9684 25.6934 12.9375 23.6714 10.4334 23.6714H9.34553C9.06873 23.6714 8.84664 23.4503 8.84664 23.1747V18.8262C8.84664 18.5506 9.06873 18.3295 9.34553 18.3295H16.0821C16.3589 18.3295 16.581 18.5506 16.581 18.8262V22.1204C16.581 24.6135 18.6119 26.6388 21.1192 26.6388H25.7379H25.7347Z" fill="#EFF7E7"/>
<path d="M44.4803 26.642H35.2332C35.1302 26.642 35.0401 26.6035 34.9628 26.5234C34.8824 26.4433 34.8438 26.3471 34.8438 26.2318V12.3306C34.8438 12.2152 34.8824 12.1191 34.9628 12.039C35.0433 11.9589 35.1334 11.9204 35.2332 11.9204H37.866C37.9819 11.9204 38.0785 11.9589 38.1589 12.039C38.2394 12.1191 38.278 12.2152 38.278 12.3306V23.3093C38.278 23.4246 38.3166 23.524 38.3971 23.6009C38.4776 23.681 38.5677 23.7194 38.6675 23.7194H44.477C44.5929 23.7194 44.6927 23.7579 44.7699 23.838C44.8504 23.9181 44.889 24.0143 44.889 24.1296V26.251C44.889 26.3535 44.8504 26.4433 44.7699 26.5202C44.6895 26.6003 44.5929 26.6388 44.477 26.6388L44.4803 26.642Z" fill="#EFF7E7"/>
<path d="M49.9132 12.9362C49.9132 13.4137 49.7362 13.8271 49.3789 14.1796C49.0249 14.5321 48.6064 14.7115 48.1301 14.7115C47.6537 14.7115 47.2353 14.5353 46.878 14.1796C46.524 13.8271 46.3438 13.4105 46.3438 12.9362C46.3438 12.462 46.5208 12.0454 46.878 11.6897C47.2353 11.334 47.6505 11.1577 48.1301 11.1577C48.6096 11.1577 49.0249 11.334 49.3789 11.6897C49.7329 12.0422 49.9132 12.4587 49.9132 12.9362ZM49.3242 26.6419H46.8233C46.7203 26.6419 46.6302 26.6035 46.553 26.5234C46.4725 26.4433 46.4339 26.3471 46.4339 26.2318V16.1183C46.4339 16.0029 46.4725 15.9068 46.553 15.8267C46.6334 15.7466 46.7235 15.7081 46.8233 15.7081H49.3242C49.4401 15.7081 49.5398 15.7466 49.6171 15.8267C49.6975 15.9068 49.7362 16.0029 49.7362 16.1183V26.2318C49.7362 26.3343 49.6975 26.4272 49.6171 26.5138C49.5366 26.6003 49.4401 26.6451 49.3242 26.6451V26.6419Z" fill="#EFF7E7"/>
<path d="M58.0181 26.6418H55.234C55.1471 26.6418 55.0667 26.6098 54.9958 26.5457C54.9218 26.4816 54.8639 26.3919 54.822 26.2765L51.1882 16.2944C51.1303 16.1342 51.1367 15.9996 51.2108 15.8843C51.2848 15.7689 51.391 15.7112 51.5358 15.7112H53.9949C54.0946 15.7112 54.188 15.7433 54.2652 15.8073C54.3457 15.8714 54.4068 15.9708 54.4487 16.099L56.6663 22.5721C56.6953 22.6298 56.721 22.6586 56.7436 22.6586C56.7661 22.6586 56.7822 22.6298 56.7983 22.5721L59.1704 16.0765C59.2283 15.9323 59.2862 15.8362 59.3442 15.7849C59.4021 15.7336 59.4826 15.708 59.5824 15.708H62.0414C62.1862 15.708 62.2892 15.7593 62.3471 15.8586C62.4051 15.9612 62.4051 16.0765 62.3471 16.2047L58.4333 26.2733C58.3915 26.3887 58.3303 26.4784 58.2595 26.5425C58.1855 26.6066 58.1082 26.6386 58.0213 26.6386L58.0181 26.6418Z" fill="#EFF7E7"/>
<path d="M68.3726 15.5347C70.027 15.5347 71.3981 16.0698 72.4957 17.1369C73.59 18.204 74.1372 19.5467 74.1372 21.165C74.1372 22.7833 73.59 24.1292 72.4957 25.2027C71.4013 26.2794 70.027 26.8146 68.3726 26.8146C66.7183 26.8146 65.3632 26.2762 64.2625 25.2027C63.1617 24.126 62.6113 22.7801 62.6113 21.165C62.6113 19.5499 63.1585 18.2233 64.2528 17.1465C65.3471 16.0698 66.7215 15.5347 68.3726 15.5347ZM65.8943 21.165C65.8943 21.9149 66.1357 22.5429 66.6217 23.0493C67.1077 23.5556 67.6903 23.8055 68.3726 23.8055C69.055 23.8055 69.6569 23.5524 70.1332 23.0493C70.6128 22.5429 70.851 21.9149 70.851 21.165C70.851 20.4151 70.6128 19.8127 70.1332 19.3128C69.6536 18.8161 69.0679 18.5661 68.3726 18.5661C67.6774 18.5661 67.1077 18.8161 66.6217 19.3128C66.1357 19.8095 65.8943 20.428 65.8943 21.165Z" fill="#EFF7E7"/>
</svg>
