<svg xmlns="http://www.w3.org/2000/svg" width="119" height="74" fill="none"><path fill="#AFBEC3" d="M46.25 41.514c-.44-1.406-1.615-1.85-3.524-1.628-.294 0-.514.296-.514.592v1.998c.954-.148 1.395.148 1.395 1.11v7.03h3.083v-5.402c0-1.85 1.101-2.664 2.423-2.664 1.321 0 1.1.148 1.761.444l1.028-2.59c-.88-.518-1.688-.666-2.496-.666-.807 0-2.349.592-3.083 1.702M53.443 40.626v10.138h3.084v-10.73H54.03a.581.581 0 0 0-.588.592ZM54.986 35.15c-1.101 0-1.836.666-1.836 1.702s.808 1.702 1.836 1.702c1.027 0 1.835-.666 1.835-1.702s-.734-1.702-1.835-1.702ZM65.337 39.738c-1.248 0-2.35.37-3.157 1.11v-5.772h-2.496a.581.581 0 0 0-.587.592v14.356c1.395.592 3.083.814 4.625.814 3.597 0 6.533-1.702 6.533-5.846s-2.275-5.328-4.845-5.328m-1.248 8.658a8.125 8.125 0 0 1-1.982-.222v-2.738c0-1.776.807-2.96 2.57-2.96 1.761 0 2.495 1.036 2.495 2.812 0 1.776-1.248 3.108-3.083 3.108ZM82 43.216c0-2.146-1.761-3.404-4.624-3.404-2.863 0-5.873 1.702-5.873 5.624 0 3.922 2.496 5.624 5.946 5.624 3.45 0 2.496-.148 3.818-.74.293-.148.44-.444.367-.74l-.44-1.776c-1.102.444-1.91.592-3.304.592-1.395 0-2.57-.444-3.084-1.702h1.175c3.817 0 6.02-.888 6.02-3.478Zm-7.34 1.406c.22-1.48 1.174-2.516 2.716-2.516 1.541 0 1.688.444 1.688 1.184s-.954 1.332-3.303 1.332h-1.175M87.14 41.514c-.441-1.406-1.616-1.85-3.525-1.628-.293 0-.513.296-.513.592v1.998c.954-.148 1.394.148 1.394 1.11v7.03h3.084v-5.402c0-1.85 1.1-2.664 2.422-2.664s1.101.148 1.762.444l1.028-2.59c-.881-.518-1.689-.666-2.496-.666-.808 0-2.35.592-3.083 1.702M104.464 46.842V41.07c0-.296-.146-.518-.44-.592-1.322-.444-2.716-.74-4.258-.74-3.67 0-6.534 1.85-6.534 5.846s1.983 5.402 4.919 5.402c2.936 0 2.863-.592 3.524-1.702.587 1.776 2.716 1.776 4.037 1.48v-2.59c-1.174.148-1.394-.296-1.394-1.258m-2.937-1.628c0 1.924-.807 3.034-2.496 3.034-1.688 0-2.496-1.036-2.496-2.812 0-1.702 1.395-3.108 3.083-3.108.808 0 1.322 0 1.909.222v2.664ZM27.31 35.15s0-1.85-.882-3.774c-.807-1.702-2.496-3.848-6.166-4.07-1.028 0-2.203.148-3.23.592-.514.222-1.028.222-1.395 0-.44-.222-.734-.666-.808-.962-.22-.592 0-1.036.147-1.258.22-.296.587-.37.808-.37.146 0 .293.074.293.222v.444c-.22.37 0 .814.367 1.036.367.222.881 0 1.028-.37.147-.37.294-1.11 0-1.776-.147-.37-.514-.888-1.321-1.036-.808-.222-1.762.148-2.35.814-.66.74-.88 1.776-.44 2.812.22.592.734 1.406 1.615 1.85-.734.814-1.321 1.85-1.615 3.256-.22 1.406 0 3.552 1.248 5.106.954 1.184 2.423 1.85 4.184 1.924 3.01 0 4.185-1.776 4.699-2.812V35.298c-.44-1.406-1.762-2.516-3.23-2.738-1.615-.074-2.79.666-3.377 2.072-.367.888-.22 1.85.22 2.59.514.74 1.321 1.11 2.35 1.184.44 0 .807-.37.807-.74 0-.444-.367-.814-.734-.814-.514 0-.881-.148-1.028-.444-.22-.37-.22-.814-.074-1.11.294-.814.881-1.11 1.836-1.11 1.027.148 1.761.888 1.908 1.554 0 .296.367 1.406-.073 2.442-.147.296-.294.592-.587.888l-.22.222-.074.074s-.073 0-.147.074c0 0-.073 0-.147.074H19.087c-1.321 0-2.276-.518-3.01-1.332-.88-1.11-1.101-2.738-.954-3.774v-.148c0-.296.22-.666.44-1.11v-.518l.074-.074.073-.074.074-.074.073-.074.073-.074.074-.074.073-.074.074-.074.073-.074h.147a3.657 3.657 0 0 1 1.762-.666c.44-.074.954-.148 1.468-.074h.147c5.139.444 5.359 5.698 5.359 6.216v5.698c0 .444-.074 3.108-1.689 3.626-1.027.222-1.761 0-2.202-.296-.514-.37-.808-.888-.88-1.406 0-.37 0-.74.293-.962.293-.296.66-.37.954-.296.294.074.514.296.587.666.074.444.514.666.955.592.22 0 .367-.148.514-.37.073-.148.146-.37.073-.592-.22-.888-.808-1.554-1.689-1.85-.88-.222-1.835 0-2.495.666-.588.518-.808 1.406-.735 2.294.147.962.661 1.924 1.542 2.516.66.444 1.468.666 2.276.666.807 0 .807 0 1.174-.148.514-.148.881-.444 1.248-.74v5.032c0 .444.367.814.808.814.44 0 .807-.37.807-.814V37.444l.661-2.294ZM18.867 24.494c.807.518 2.202.888 4.037.148.661-.37 1.175-1.036 1.395-1.776.294-.962.147-1.998-.367-2.738-.293-.444-.734-.814-1.248-.962-.807-.222-1.615-.148-2.202.222-.514.296-.808.74-.954 1.258-.074.444.146.814.587.962.22 0 .44 0 .587-.074.147-.074.294-.296.367-.518 0-.074.074-.148.22-.222.22-.148.588-.148.955 0 .147 0 .293.148.44.296.22.37.294.888.147 1.406-.147.37-.294.666-.587.814-.955.444-1.835.444-2.57 0-.807-.518-1.248-1.48-1.248-1.924 0-.592 0-1.776.808-2.664.587-.666 1.541-.962 2.79-.962 3.083.222 3.743 2.442 3.817 4.292v6.216c0 .444.367.814.807.814.44 0 .808-.37.808-.814v-6.216c-.147-3.552-2.056-5.624-5.286-5.846h-.147c-1.614 0-2.936.518-3.817 1.48-1.028 1.184-1.321 2.812-1.174 3.848 0 .962.734 2.368 2.055 3.182M37.22 36.482c-1.248-.74-2.643-.74-4.038-.148-.66.37-1.248 1.036-1.468 1.776-.294.962-.147 2.22.367 3.034.367.518.734.814 1.248.962.88.296 1.762.148 2.349-.222.367-.296.881-.814.954-1.85 0-.222 0-.444-.22-.592-.147-.148-.294-.222-.514-.296-.22 0-.44 0-.587.222-.147.148-.22.296-.294.518a.941.941 0 0 1-.293.666c-.22.148-.588.148-1.028 0-.147 0-.294-.148-.44-.37-.294-.37-.368-1.11-.22-1.628 0-.148.22-.592.66-.814 1.175-.518 2.055-.222 2.57 0 .733.444 1.32 1.258 1.394 1.998 0 .592 0 1.702-.807 2.59-.588.666-1.542 1.036-2.79 1.036-3.01-.222-3.744-2.442-3.817-4.218v-5.328c0-.37-.367-.74-.734-.74a.739.739 0 0 0-.735.74v16.354c0 .444.367.814.808.814.44 0 .807-.37.807-.814v-6.808c.881.962 2.203 1.48 3.744 1.628 1.689 0 3.01-.518 3.965-1.554 1.027-1.184 1.321-2.738 1.174-3.774-.147-1.258-.954-2.516-2.129-3.256M41.918 23.606c-1.248-1.036-3.157-1.48-4.918-1.258-1.542.222-2.79 1.036-3.524 2.22-.954 1.776-.954 3.7 0 5.18.807 1.332 2.276 1.998 3.67 1.85 2.79-.222 3.377-2.368 3.304-3.404 0-.888-.587-1.628-1.395-2.072-.88-.444-1.909-.37-2.79.222-.367.222-.44.74-.22 1.11.147.148.294.296.514.37.22 0 .44 0 .587-.148.367-.222.808-.296 1.248-.074.147.074.514.296.514.74 0 .148 0 1.628-1.908 1.776-.881.074-1.762-.37-2.276-1.184-.66-1.036-.66-2.294 0-3.552.44-.814 1.321-1.332 2.422-1.48 1.322-.222 2.717.148 3.671.888 1.321 1.184 2.129 3.552.88 5.994-.807 1.554-2.569 2.368-3.817 2.59-1.248.222-2.495 0-3.597-.37l-.293-.148c-2.423-1.11-3.304-3.478-3.597-5.254-.147-.518-.147-2.294-.147-3.256v-5.402c0-.37.147-1.628 1.027-2.442.661-.74 2.276-1.184 3.598-.666 1.027.444 1.541 1.258 1.468 2.59-.073.888-.66 1.924-2.056 1.998-.293 0-.88-.074-1.248-.444a1.135 1.135 0 0 1-.293-.74c0-.37.147-.666.44-.74.294-.148.587 0 .66 0 .221.296.735.444 1.029.148.146-.148.293-.296.293-.518 0-.222 0-.444-.147-.592-.44-.592-1.394-.888-2.202-.592-.954.296-1.541 1.11-1.615 2.22 0 .74.22 1.406.734 1.85.881.888 2.276.888 2.423.888 1.909 0 3.377-1.48 3.597-3.404 0-1.998-.808-3.552-2.496-4.144-1.762-.74-4.184-.222-5.286 1.036-1.395 1.406-1.468 3.404-1.468 3.478v5.328c0 .296 0 2.738.147 3.626.514 2.886 1.909 5.032 4.038 6.142l.367.222c1.1.518 2.202.814 3.45.814 1.248 0 .88 0 1.395-.148 1.688-.296 3.817-1.332 4.918-3.404 1.615-3.256.44-6.364-1.321-7.918"/></svg>