<svg xmlns="http://www.w3.org/2000/svg" width="231" height="74" fill="none"><path fill="#879EA4" fill-rule="evenodd" d="m220.883 49.95-1.551-4.144-1.551 4.144h3.102Zm4.135 4.366h-2.511l-.812-2.146h-4.8l-.813 2.146h-2.511l4.431-10.952h2.511l4.431 10.952h.074Zm-18.241 0h2.364V43.364h-2.364v10.952Zm-9.969-10.952h-2.363v10.952h7.68v-2.22h-5.243v-8.732h-.074Zm-10.339 10.952h2.363V43.364h-2.363v10.952Zm.074-12.506h2.141l1.551-2.442h-2.658l-1.034 2.442Zm-11.89 8.288-3.692-6.734h-2.437v10.952h2.363v-7.03l3.175 5.92h1.108l3.175-5.92v7.03h2.364V43.364h-2.437l-3.693 6.734h.074Zm-14.696-.148-1.551-4.144-1.551 4.144h3.102Zm-.295-6.586 4.431 10.952h-2.511l-.813-2.146h-4.8l-.812 2.146h-2.511l4.431-10.952h2.585Zm-17.798 10.952h2.363v-3.848h4.8v-2.22h-4.8v-2.664h5.17v-2.22h-7.533v10.952Zm-15.065-4.366-1.551-4.144-1.551 4.144h3.102Zm-.296-6.586 4.431 10.952h-2.511l-.812-2.146h-4.8l-.812 2.146h-2.511l4.431-10.952h2.584Zm-12.776 5.476c0-1.776-1.255-3.256-2.806-3.256h-2.585v6.512h2.585c1.625 0 2.806-1.48 2.806-3.256Zm2.437 0c0 3.034-2.363 5.476-5.317 5.476h-4.948V43.364h4.948c2.954 0 5.317 2.442 5.317 5.476Zm-18.831 1.11-1.55-4.144-1.552 4.144h3.102Zm-.295-6.586 4.431 10.952h-2.511l-.813-2.146h-4.8l-.812 2.146h-2.511l4.43-10.952h2.586Zm-13.515 3.7c0-.74-.443-1.48-1.255-1.48h-3.102v3.182h3.028c.812 0 1.255-.888 1.255-1.628l.074-.074Zm.886 3.256 1.994 3.996H83.82l-1.699-3.404h-3.028v3.404H76.73V43.364h5.834c2.142 0 3.323 1.776 3.323 3.626 0 1.85-.517 2.59-1.55 3.33h.073Zm-17.428-4.884c1.034 0 2.437.37 3.028 1.036l1.624-1.48c-1.107-1.184-2.732-1.85-4.726-1.85-3.397 0-5.908 2.294-5.908 5.624 0 3.33 2.511 5.698 5.982 5.698 3.47 0 3.619-.592 4.579-1.628v-4.81h-4.358v2.22h1.995v1.406c-.591.296-1.404.518-2.142.518-2.142 0-3.545-1.628-3.545-3.478 0-1.85 1.33-3.404 3.471-3.404v.148ZM53.467 49.95l-1.551-4.144-1.551 4.144h3.102Zm-.296-6.586 4.431 10.952h-2.51l-.813-2.146h-4.8l-.813 2.146h-2.51l4.43-10.952h2.585Zm-14.696 4.292c-1.477-.444-1.846-.888-1.846-1.332 0-.444.517-.888 1.33-.888.812 0 2.51.37 3.692 1.036l.886-1.924c-1.477-1.036-3.471-1.332-4.653-1.332-2.51 0-3.84 1.48-3.84 3.182 0 1.406.739 2.738 4.431 3.7 1.182.296 1.699.518 1.699 1.258s-.443 1.036-1.477 1.036-2.585-.444-4.062-1.258l-.96 1.924c1.55 1.036 3.397 1.554 5.022 1.554 2.437 0 4.061-1.184 4.061-3.33s-.886-2.59-4.135-3.552l-.148-.074Zm62.698-15.466-1.846-4.514-1.846 4.514h3.692Zm-1.108-5.846 3.988 9.398h-1.403l-.96-2.368h-4.652l-.96 2.368h-1.404l3.988-9.398h1.403Zm-9.526 7.178c-.665.74-1.846 1.184-2.806 1.184-1.92 0-3.545-1.554-3.545-3.626s1.55-3.626 3.397-3.626c1.846 0 2.215.37 2.954 1.11l.96-.888c-.96-.962-2.511-1.48-3.84-1.48-2.511 0-4.8 1.924-4.8 4.884 0 2.96 2.141 4.884 4.874 4.884 2.732 0 2.88-.592 3.766-1.48l-.886-.962h-.074Zm-13.514 2.22h1.329v-9.398h-1.33v9.398Zm-6.573-1.924-5.539-7.474h-1.33v9.398h1.33v-7.4l5.539 7.4h1.33v-9.398h-1.33v7.474Zm-13.293-8.806h1.255l1.33-1.924h-1.477l-1.108 1.924Zm0 10.73h1.33v-9.398h-1.33v9.398Zm-4.21-1.184h-5.095v-8.14h-1.33v9.398h6.426v-1.258ZM33.528 31.08c0-2.96 2.29-4.884 4.8-4.884 2.511 0 2.955.592 3.84 1.48l-.96.888c-.664-.74-1.993-1.11-2.953-1.11-1.846 0-3.397 1.554-3.397 3.626s1.624 3.626 3.544 3.626 2.142-.37 2.807-1.184l.96.962c-.886.962-2.29 1.48-3.767 1.48-2.732 0-4.874-2.072-4.874-4.884Z" clip-rule="evenodd"/><path fill="#AFBEC3" fill-rule="evenodd" d="M10.118 38.184h.074c.443.444.96.592 1.477.592.886 0 1.772-.518 2.141-1.332.148-.37.296-.74.296-1.184v-3.256c0-.148-.074-.222-.222-.222h-2.88c-.886 0-1.255-.222-1.255-.962s.664-1.924 1.846-1.924h2.437v-4.07c.074-1.184.517-2.22 1.329-3.108 0 0 .074-.148 0-.222 0-.074-.074-.148-.222-.148-4.652.148-8.418 4.144-8.418 8.954 0 4.81 1.181 5.254 3.175 6.956m11.078-13.764H20.9c-.443-.444-.96-.592-1.477-.592-.886 0-1.773.518-2.142 1.406-.148.37-.295.74-.295 1.184v3.256c0 .148.074.222.221.222h2.88c.887 0 1.256.222 1.256.962s-.665 1.924-1.846 1.924H17.06V37c-.074 1.184-.517 2.22-1.33 3.108 0 0-.074.148 0 .222 0 .074.074.148.222.148 4.652-.148 8.419-4.144 8.419-8.954 0-4.81-1.182-5.254-3.176-6.956" clip-rule="evenodd"/></svg>