<svg width="130" height="74" viewBox="0 0 130 74" fill="none" xmlns="http://www.w3.org/2000/svg">
<path d="M17.4164 27.9719H26.8963L24.9856 37.6659C24.6182 38.9979 23.5159 39.886 22.1196 39.886H12.6396L14.6238 30.1919C14.9178 28.8599 16.0936 27.9719 17.4164 27.8979" fill="#879EA4"/>
<path d="M22.1195 33.9661H31.5994L29.6887 43.6601C29.3948 44.9181 28.219 45.8801 26.8962 45.8801H17.3428L19.2535 36.1861C19.5474 34.8541 20.7232 33.9661 22.046 33.8921" fill="#AFBEC3"/>
<path d="M26.8961 39.96H36.376L34.2449 49.654C34.0244 50.912 32.9221 51.874 31.5993 51.874H22.0459L23.8096 42.254C24.177 40.922 25.4263 39.96 26.7491 39.96" fill="#879EA4"/>
<path d="M31.6732 45.9541H41.1531L39.0955 55.6481C38.8015 56.9801 37.6992 57.9421 36.3764 58.0161H26.8965L28.7337 48.3221C29.1011 46.9901 30.2769 46.0281 31.5997 45.9541" fill="#AFBEC3"/>
<path d="M48.5758 33.1518L53.9404 40.0338C54.4548 40.7738 54.1609 41.2918 53.5729 41.7358L47.106 47.4338C46.6651 47.8778 45.8567 47.8778 45.4158 47.4338L40.0512 40.5518C39.7572 39.9598 39.9042 39.2198 40.4186 38.8498L46.8856 33.1518C47.3265 32.7078 48.1348 32.7078 48.5758 33.1518Z" fill="#AFBEC3"/>
<path d="M31.6732 16.0581H41.1531L39.3159 25.7521C38.9485 27.0841 37.7727 27.9721 36.3764 28.0461H26.8965L28.9541 18.3521C29.2481 17.0941 30.3504 16.1321 31.5997 16.1321" fill="#879EA4"/>
<path d="M36.3763 21.978H45.8563L43.9456 31.598C43.5781 32.93 42.4023 33.818 41.0795 33.892H31.5996L33.5838 24.198C33.8777 22.94 34.9801 21.978 36.3028 21.978" fill="#AFBEC3"/>
<path d="M69.0784 37.5919C69.0784 36.4079 68.1966 35.3719 67.0208 35.3719C66.8738 35.3719 66.7268 35.3719 66.6533 35.3719C65.4775 35.3719 64.3017 35.9639 64.3017 37.2959C64.3017 38.6279 65.698 39.0719 66.9473 39.3679C69.1519 39.9599 72.4589 40.5519 72.4589 43.5119C72.4589 46.4719 69.2989 48.3959 66.1389 48.3959C62.979 48.3959 60.4069 47.0639 60.5539 43.3639H63.7873C63.5669 44.6219 64.3752 45.8059 65.6245 46.0279C65.845 46.0279 65.992 46.0279 66.2124 46.0279C67.4617 46.0279 69.1519 45.6579 69.1519 44.1039C69.1519 42.5499 67.0943 42.2539 65.845 41.9579C63.7873 41.4399 60.9948 40.5519 60.9948 37.8879C60.9948 35.2239 64.0813 33.0039 67.0943 33.0039C70.1073 33.0039 72.1649 34.5579 72.1649 37.5179H69.1519L69.0784 37.5919Z" fill="#AFBEC3"/>
<path d="M82.4536 38.1841C82.6005 36.7781 81.4982 35.5201 80.1019 35.3721C79.955 35.3721 79.808 35.3721 79.661 35.3721C77.4564 35.3721 76.8685 38.7021 76.8685 40.7741C76.8685 42.8461 77.4564 46.1761 79.661 46.1761C81.0573 46.3241 82.3066 45.2881 82.4536 43.8081C82.4536 43.6601 82.4536 43.5121 82.4536 43.3641H85.7605C85.6135 47.0641 82.968 48.4701 79.661 48.4701C76.3541 48.4701 73.5615 45.1401 73.5615 40.7741C73.5615 36.4081 75.3987 33.0781 79.661 33.0781C83.9233 33.0781 85.687 34.4841 85.7605 38.1841H82.4536Z" fill="#AFBEC3"/>
<path d="M90.0965 33.374H86.9365V48.1H90.0965V33.374Z" fill="#AFBEC3"/>
<path d="M100.09 42.55L98.1059 36.26L95.9747 42.55H100.164H100.09ZM90.9775 48.1L96.2687 33.374H100.017L105.087 48.1H101.927L100.898 44.992H95.0929L93.9905 48.1H91.051H90.9775Z" fill="#AFBEC3"/>
<path d="M113.98 37.5919C113.98 36.4079 113.098 35.3719 111.922 35.3719C111.775 35.3719 111.628 35.3719 111.555 35.3719C110.379 35.3719 109.203 35.9639 109.203 37.2959C109.203 38.6279 110.599 39.0719 111.849 39.3679C114.053 39.9599 117.36 40.5519 117.36 43.5119C117.36 46.4719 114.2 48.3959 111.04 48.3959C107.88 48.3959 105.308 47.0639 105.455 43.3639H108.689C108.468 44.6219 109.277 45.8059 110.526 46.0279C110.746 46.0279 110.893 46.0279 111.114 46.0279C112.363 46.0279 114.053 45.6579 114.053 44.1039C114.053 42.5499 111.996 42.2539 110.746 41.9579C108.689 41.4399 105.896 40.5519 105.896 37.8879C105.896 35.2239 108.983 33.0039 111.996 33.0039C115.009 33.0039 117.066 34.5579 117.066 37.5179H114.053L113.98 37.5919Z" fill="#AFBEC3"/>
</svg>
