<svg width="142" height="73" viewBox="0 0 142 73" fill="none" xmlns="http://www.w3.org/2000/svg">
<path d="M17.8432 30.8644C17.8284 25.6595 22.096 21.4401 27.3677 21.462C32.2112 21.4912 36.3163 25.9369 36.3163 25.9369L38.9522 23.7688C40.6947 22.3672 42.9613 21.4693 45.4126 21.4985C50.677 21.5788 54.9593 25.7398 54.9741 30.9374C54.9741 30.9374 55.203 34.2808 52.4785 37.3322L36.4566 53.144L20.3609 37.2592C17.6217 34.2443 17.8432 30.8571 17.8432 30.8571" fill="#879EA4"/>
<path d="M14.2852 30.7476C14.2852 30.7476 14.2852 30.733 14.2852 30.7184C14.2852 30.7038 14.2852 30.66 14.2852 30.6527V30.7476ZM38.5838 55.6333C40.5995 53.6477 54.458 40.004 54.458 40.004C54.65 39.7996 54.9084 39.3397 54.458 38.8944L51.0174 35.4926L50.8697 35.3539C50.4046 34.8721 49.9172 35.1641 49.7105 35.3612C49.7105 35.3612 49.6957 35.3685 49.6957 35.3758C49.6957 35.3758 49.6957 35.3758 49.681 35.3831L49.5185 35.551C47.023 38.0111 39.2188 45.7053 36.3393 48.5523C32.9208 45.2089 22.8646 35.3539 22.6653 35.1641C21.0409 33.3537 20.9671 31.39 20.9671 31.0688V31.025C21.0778 28.0466 22.5988 25.8493 25.0427 25.112C27.6564 24.3236 31.6951 25.185 35.4311 29.8497L35.4532 29.8789C35.4754 29.9008 35.4828 29.9227 35.5123 29.9446C35.5345 29.9738 35.9627 30.4264 36.4869 30.0687L40.688 27.0392C41.1975 26.645 40.9908 26.1559 40.821 25.9369C40.8062 25.915 40.7914 25.8931 40.7766 25.8785L40.6585 25.7252C34.8404 18.4836 27.8262 17.3667 23.0787 18.8048C17.8735 20.3889 14.514 24.9514 14.2925 30.7257C14.2925 30.7987 14.2925 30.8936 14.2925 31.0615C14.2925 32.339 14.5805 36.1423 17.7184 39.5952L17.7849 39.6682C17.7849 39.6682 32.0938 53.6623 34.1021 55.6406C35.564 57.0787 37.1367 57.0787 38.5986 55.6406L38.5838 55.6333Z" fill="#AFBEC3"/>
<path d="M69.8146 31.4922H69.3052C69.1944 31.4922 69.1058 31.4192 69.1058 31.3243V28.5576H65.7021V31.3243C65.7021 31.4192 65.6135 31.4922 65.5027 31.4922H64.9933C64.8825 31.4922 64.7939 31.4192 64.7939 31.3243V25.039C64.7939 24.9441 64.8825 24.8711 64.9933 24.8711H65.5027C65.6135 24.8711 65.7021 24.9441 65.7021 25.039V27.886H69.1058V25.039C69.1058 24.9441 69.1944 24.8711 69.3052 24.8711H69.8146C69.9254 24.8711 70.014 24.9441 70.014 25.039V31.3243C70.014 31.4192 69.9254 31.4922 69.8146 31.4922Z" fill="#AFBEC3"/>
<path d="M74.9534 28.3239C74.9534 27.2143 74.5252 26.7836 73.6465 26.7836C72.7679 26.7836 72.3175 27.2654 72.3175 28.3239V28.4115H74.9534V28.3239ZM75.6474 29.0685H72.3175V29.2072C72.3175 30.3752 72.7827 30.8059 73.7056 30.8059C74.2815 30.8059 75.0198 30.7694 75.4776 30.6964H75.5219C75.6031 30.6964 75.6843 30.7329 75.6843 30.8351V31.1709C75.6843 31.3023 75.6474 31.368 75.485 31.3972C74.9165 31.5067 74.3701 31.5651 73.7056 31.5651C72.5612 31.5651 71.4463 31.0322 71.4463 29.2072V28.3239C71.4463 26.9223 72.2289 26.0244 73.6539 26.0244C75.0789 26.0244 75.8468 26.9296 75.8468 28.3239V28.8495C75.8468 28.9736 75.7803 29.0612 75.6548 29.0612L75.6474 29.0685Z" fill="#AFBEC3"/>
<path d="M79.4203 26.7763C78.9626 26.7763 78.5491 26.8931 78.047 27.1924V31.3023C78.047 31.4045 77.9584 31.4994 77.8477 31.4994H77.3604C77.257 31.4994 77.1758 31.4118 77.1758 31.3023V26.2945C77.1758 26.185 77.2496 26.0974 77.3604 26.0974H77.8255C77.9289 26.0974 78.0175 26.185 78.0175 26.2945V26.4989C78.5122 26.1558 78.9699 26.0317 79.4203 26.0317C79.5606 26.0317 79.6271 26.0901 79.6271 26.2069V26.6084C79.6271 26.7179 79.5606 26.7763 79.4203 26.7763Z" fill="#AFBEC3"/>
<path d="M87.1069 31.4921H86.627C86.5162 31.4921 86.4276 31.4045 86.4276 31.295V27.8202C86.4276 26.9953 86.0363 26.769 85.5195 26.769C85.1651 26.769 84.7442 26.8858 84.3529 27.0318C84.412 27.2508 84.4415 27.499 84.4415 27.7983V31.2877C84.4415 31.3899 84.3677 31.4848 84.2643 31.4848H83.7401C83.6367 31.4848 83.5703 31.3972 83.5703 31.2877V27.7983C83.5703 26.9442 83.3192 26.769 82.8024 26.769C82.4406 26.769 82.005 26.9442 81.5915 27.1486V31.2877C81.5915 31.3899 81.5251 31.4848 81.4143 31.4848H80.8827C80.7867 31.4848 80.7129 31.3972 80.7129 31.2877V26.2799C80.7129 26.1704 80.7941 26.0828 80.9049 26.0828H81.3995C81.5103 26.0828 81.5915 26.1704 81.5915 26.2799V26.4697C81.9902 26.2215 82.4997 26.0098 83.046 26.0098C83.4743 26.0098 83.7918 26.1266 84.0428 26.4113C84.5892 26.1558 85.1798 26.0098 85.6967 26.0098C86.59 26.0098 87.3062 26.4478 87.3062 27.8129V31.2877C87.3062 31.3972 87.2176 31.4848 87.1069 31.4848" fill="#AFBEC3"/>
<path d="M91.7292 28.886H90.9908C89.7874 28.886 89.4699 29.1488 89.4699 29.8496V29.9664C89.4699 30.6745 89.8095 30.857 90.3854 30.857C90.8432 30.857 91.2493 30.7183 91.7292 30.4628V28.886ZM92.4084 31.4921H91.9507C91.8473 31.4921 91.7513 31.4045 91.7513 31.295V31.0833C91.2714 31.3607 90.7767 31.5651 90.2156 31.5651C89.3739 31.5651 88.5986 31.2001 88.5986 29.9737V29.8569C88.5986 28.7984 89.2262 28.2655 90.9982 28.2655H91.7366V27.8713C91.7366 27.0464 91.4486 26.7617 90.6734 26.7617C90.031 26.7617 89.5511 26.8055 89.1524 26.842H89.1081C89.0195 26.842 88.9235 26.8128 88.9235 26.6887V26.3456C88.9235 26.2361 88.9973 26.1777 89.1302 26.1631C89.5363 26.0901 89.9941 26.0317 90.6734 26.0317C92.054 26.0317 92.6152 26.7179 92.6152 27.8786V31.3023C92.6152 31.4118 92.5266 31.4994 92.4158 31.4994L92.4084 31.4921Z" fill="#AFBEC3"/>
<path d="M98.1008 31.4921H97.6209C97.5102 31.4921 97.4216 31.4045 97.4216 31.295V28.0684C97.4216 27.0756 97.0819 26.769 96.3288 26.769C95.908 26.769 95.4428 26.9296 94.9851 27.1486V31.2877C94.9851 31.3899 94.8965 31.4848 94.7857 31.4848H94.2984C94.195 31.4848 94.1064 31.3972 94.1064 31.2877V26.2799C94.1064 26.1704 94.1877 26.0828 94.2984 26.0828H94.7931C94.9038 26.0828 94.9851 26.1704 94.9851 26.2799V26.4697C95.5314 26.1631 95.9818 26.0171 96.5651 26.0171C97.7612 26.0171 98.2928 26.7544 98.2928 28.0611V31.2877C98.2928 31.3972 98.2042 31.4848 98.0935 31.4848" fill="#AFBEC3"/>
<path d="M102.701 28.886H101.963C100.759 28.886 100.442 29.1488 100.442 29.8496V29.9664C100.442 30.6745 100.781 30.857 101.357 30.857C101.815 30.857 102.221 30.7183 102.701 30.4628V28.886ZM103.38 31.4921H102.922C102.819 31.4921 102.723 31.4045 102.723 31.295V31.0833C102.243 31.3607 101.748 31.5651 101.195 31.5651C100.346 31.5651 99.5703 31.2001 99.5703 29.9737V29.8569C99.5703 28.7984 100.198 28.2655 101.97 28.2655H102.708V27.8713C102.708 27.0464 102.42 26.7617 101.645 26.7617C101.003 26.7617 100.523 26.8055 100.124 26.842H100.072C99.9838 26.842 99.8878 26.8128 99.8878 26.6887V26.3456C99.8878 26.2361 99.9616 26.1777 100.095 26.1631C100.501 26.0901 100.958 26.0317 101.638 26.0317C103.018 26.0317 103.579 26.7179 103.579 27.8786V31.3023C103.579 31.4118 103.491 31.4994 103.38 31.4994V31.4921Z" fill="#AFBEC3"/>
<path d="M106.658 31.5652C106.289 31.5652 105.573 31.536 105.085 31.4192C104.96 31.39 104.878 31.3316 104.878 31.2221V30.879C104.878 30.7914 104.96 30.733 105.056 30.733H105.093C105.573 30.7914 106.296 30.8425 106.65 30.8425C107.3 30.8425 107.632 30.6746 107.632 30.149C107.632 29.857 107.448 29.6672 106.887 29.3387L105.883 28.7474C105.277 28.3824 104.871 27.959 104.871 27.3458C104.871 26.3238 105.646 26.0391 106.673 26.0391C107.234 26.0391 107.758 26.0902 108.223 26.1705C108.349 26.1924 108.415 26.2581 108.415 26.3676V26.6961C108.415 26.8129 108.341 26.864 108.245 26.864H108.216C107.869 26.8348 107.234 26.7837 106.673 26.7837C106.111 26.7837 105.742 26.8494 105.742 27.3531C105.742 27.6524 105.971 27.8349 106.429 28.0977L107.411 28.6817C108.238 29.1635 108.504 29.5869 108.504 30.1636C108.504 31.1637 107.758 31.5871 106.643 31.5871" fill="#AFBEC3"/>
<path d="M69.7859 41.4131H69.2764C69.1657 41.4131 69.0771 41.3401 69.0771 41.2452V38.4712H65.666V41.2452C65.666 41.3401 65.5774 41.4131 65.4666 41.4131H64.9572C64.8464 41.4131 64.7578 41.3401 64.7578 41.2452V34.9672C64.7578 34.8723 64.8464 34.7993 64.9572 34.7993H65.4666C65.5774 34.7993 65.666 34.8723 65.666 34.9672V37.7923H69.0771V34.9672C69.0771 34.8723 69.1657 34.7993 69.2764 34.7993H69.7859C69.8966 34.7993 69.9852 34.8723 69.9852 34.9672V41.2452C69.9852 41.3401 69.8966 41.4131 69.7859 41.4131Z" fill="#AFBEC3"/>
<path d="M74.924 38.3397C74.924 37.3323 74.5105 36.6972 73.5802 36.6972C72.6499 36.6972 72.2439 37.325 72.2439 38.3397V39.0843C72.2439 40.0844 72.6426 40.7268 73.5802 40.7268C74.5179 40.7268 74.924 40.099 74.924 39.0843V38.3397ZM73.5802 41.486C72.111 41.486 71.3652 40.5297 71.3652 39.0843V38.3397C71.3652 36.8943 72.111 35.938 73.5802 35.938C75.0495 35.938 75.81 36.887 75.81 38.3397V39.0843C75.81 40.5297 75.0495 41.486 73.5802 41.486Z" fill="#AFBEC3"/>
<path d="M78.6901 41.486C78.3209 41.486 77.5974 41.4568 77.1101 41.34C76.9845 41.3108 76.9033 41.2524 76.9033 41.1429V40.7998C76.9033 40.7122 76.9845 40.6538 77.0805 40.6538H77.1101C77.5974 40.7122 78.3283 40.7633 78.6901 40.7633C79.3398 40.7633 79.6721 40.5954 79.6721 40.0625C79.6721 39.7632 79.4949 39.5807 78.9264 39.2449L77.9222 38.6536C77.3094 38.2959 76.9033 37.8725 76.9033 37.252C76.9033 36.23 77.6786 35.9453 78.7122 35.9453C79.2734 35.9453 79.805 35.9964 80.2701 36.0767C80.403 36.0913 80.4621 36.1643 80.4621 36.2738V36.6023C80.4621 36.7191 80.3883 36.7702 80.2923 36.7702H80.2627C79.9157 36.741 79.2734 36.6899 78.7122 36.6899C78.1511 36.6899 77.7819 36.7629 77.7819 37.2593C77.7819 37.5513 78.0108 37.7411 78.4686 38.0039L79.458 38.5879C80.2849 39.0697 80.5581 39.4931 80.5581 40.0698C80.5581 41.0699 79.805 41.4933 78.6901 41.4933" fill="#AFBEC3"/>
<path d="M85.2167 38.3689C85.2167 37.3323 84.9066 36.668 83.9173 36.668C83.4964 36.668 83.0313 36.7191 82.7507 36.7702V40.6684C83.0829 40.7268 83.5998 40.7706 83.9173 40.7706C84.8919 40.7706 85.2167 40.1428 85.2167 39.0916V38.3835M83.9173 41.486C83.6072 41.486 83.1346 41.4495 82.7507 41.3765V43.1577C82.7507 43.2526 82.6695 43.3475 82.5587 43.3475H82.0493C81.9459 43.3475 81.8721 43.2672 81.8721 43.1577V36.3906C81.8721 36.2592 81.9016 36.2008 82.0788 36.1643C82.6104 36.0329 83.3044 35.938 83.9173 35.938C85.4013 35.938 86.0954 36.887 86.0954 38.3689V39.077C86.0954 40.6246 85.3792 41.486 83.9173 41.486Z" fill="#AFBEC3"/>
<path d="M88.1925 41.4128H87.7126C87.6018 41.4128 87.5132 41.3252 87.5132 41.2157V36.2006C87.5132 36.0911 87.6018 36.0035 87.7126 36.0035H88.1925C88.3033 36.0035 88.3919 36.0911 88.3919 36.2006V41.2157C88.3919 41.3252 88.3033 41.4128 88.1925 41.4128ZM88.2147 35.1421H87.7052C87.5945 35.1421 87.5059 35.0545 87.5059 34.945V34.1566C87.5059 34.0471 87.5945 33.9595 87.7052 33.9595H88.2147C88.3254 33.9595 88.414 34.0471 88.414 34.1566V34.945C88.414 35.0545 88.3254 35.1421 88.2147 35.1421Z" fill="#AFBEC3"/>
<path d="M92.7036 41.4349C92.5042 41.4641 92.2458 41.486 92.0539 41.486C91.1383 41.486 90.6953 41.2524 90.6953 40.172V36.741L89.7281 36.6315C89.6174 36.6242 89.5361 36.5585 89.5361 36.4563V36.1862C89.5361 36.0767 89.6174 36.011 89.7281 36.011H90.6953V35.0474C90.6953 34.9525 90.7618 34.8722 90.8725 34.8503L91.3894 34.77H91.4189C91.5001 34.77 91.5739 34.8357 91.5739 34.9379V36.011H92.6519C92.7627 36.011 92.8513 36.0986 92.8513 36.2081V36.5439C92.8513 36.6534 92.7627 36.741 92.6519 36.741H91.5739V40.172C91.5739 40.7122 91.7142 40.7925 92.1129 40.7925H92.6741C92.8143 40.7925 92.8808 40.829 92.8808 40.9312V41.2743C92.8808 41.3619 92.8291 41.4203 92.7036 41.4422" fill="#AFBEC3"/>
<path d="M96.927 38.7996H96.1887C94.9778 38.7996 94.6603 39.0624 94.6603 39.7632V39.88C94.6603 40.5881 94.9999 40.7779 95.5758 40.7779C96.0336 40.7779 96.4471 40.6392 96.9196 40.3837V38.7996M97.6063 41.413H97.1485C97.0377 41.413 96.9491 41.3254 96.9491 41.2159V40.9969C96.4692 41.2743 95.9745 41.4787 95.4134 41.4787C94.5643 41.4787 93.7891 41.1137 93.7891 39.8873V39.7705C93.7891 38.7047 94.4166 38.1791 96.196 38.1791H96.9344V37.7849C96.9344 36.96 96.6464 36.6753 95.8638 36.6753C95.2141 36.6753 94.7341 36.7191 94.3354 36.7556H94.2837C94.1951 36.7556 94.1065 36.7264 94.1065 36.595V36.2519C94.1065 36.1424 94.173 36.084 94.3133 36.0694C94.7267 35.9964 95.1845 35.938 95.8638 35.938C97.2519 35.938 97.813 36.6242 97.813 37.7849V41.2159C97.813 41.3254 97.7244 41.413 97.6136 41.413H97.6063Z" fill="#AFBEC3"/>
<path d="M100.028 41.4127H99.5108C99.4148 41.4127 99.3262 41.3324 99.3262 41.2302V34.85C99.3262 34.7624 99.4 34.6821 99.5108 34.6821H100.028C100.124 34.6821 100.205 34.7551 100.205 34.85V41.2302C100.205 41.3178 100.138 41.4127 100.028 41.4127Z" fill="#AFBEC3"/>
<path d="M104.694 38.7996H103.955C102.744 38.7996 102.427 39.0624 102.427 39.7632V39.88C102.427 40.5881 102.767 40.7779 103.342 40.7779C103.8 40.7779 104.214 40.6392 104.686 40.3837V38.7996M105.373 41.413H104.915C104.804 41.413 104.716 41.3254 104.716 41.2159V40.9969C104.236 41.2743 103.741 41.4787 103.18 41.4787C102.331 41.4787 101.556 41.1137 101.556 39.8873V39.7705C101.556 38.7047 102.183 38.1791 103.963 38.1791H104.701V37.7849C104.701 36.96 104.413 36.6753 103.63 36.6753C102.981 36.6753 102.501 36.7191 102.102 36.7556H102.058C101.962 36.7556 101.873 36.7264 101.873 36.595V36.2519C101.873 36.1424 101.94 36.084 102.08 36.0694C102.486 35.9964 102.951 35.938 103.63 35.938C105.018 35.938 105.572 36.6242 105.572 37.7849V41.2159C105.572 41.3254 105.484 41.413 105.373 41.413Z" fill="#AFBEC3"/>
<path d="M109.271 36.6826C108.814 36.6826 108.393 36.7994 107.898 37.0914V41.2159C107.898 41.3181 107.81 41.413 107.699 41.413H107.211C107.108 41.413 107.02 41.3254 107.02 41.2159V36.2008C107.02 36.0913 107.101 36.0037 107.211 36.0037H107.677C107.787 36.0037 107.869 36.0913 107.869 36.2008V36.4052C108.363 36.0621 108.821 35.9307 109.271 35.9307C109.412 35.9307 109.478 35.9891 109.478 36.1059V36.5074C109.478 36.6169 109.412 36.6753 109.271 36.6753" fill="#AFBEC3"/>
<path d="M111.302 41.4128H110.823C110.712 41.4128 110.623 41.3252 110.623 41.2157V36.2006C110.623 36.0911 110.712 36.0035 110.823 36.0035H111.302C111.413 36.0035 111.502 36.0911 111.502 36.2006V41.2157C111.502 41.3252 111.413 41.4128 111.302 41.4128ZM111.317 35.1421H110.808C110.697 35.1421 110.608 35.0545 110.608 34.945V34.1566C110.608 34.0471 110.697 33.9595 110.808 33.9595H111.317C111.428 33.9595 111.517 34.0471 111.517 34.1566V34.945C111.517 35.0545 111.428 35.1421 111.317 35.1421Z" fill="#AFBEC3"/>
<path d="M116.02 38.7996H115.281C114.078 38.7996 113.753 39.0624 113.753 39.7632V39.88C113.753 40.5881 114.093 40.7779 114.669 40.7779C115.126 40.7779 115.54 40.6392 116.012 40.3837V38.7996M116.699 41.413H116.241C116.131 41.413 116.042 41.3254 116.042 41.2159V40.9969C115.562 41.2743 115.067 41.4787 114.506 41.4787C113.657 41.4787 112.882 41.1137 112.882 39.8873V39.7705C112.882 38.7047 113.509 38.1791 115.289 38.1791H116.027V37.7849C116.027 36.96 115.739 36.6753 114.957 36.6753C114.307 36.6753 113.827 36.7191 113.428 36.7556H113.377C113.288 36.7556 113.192 36.7264 113.192 36.595V36.2519C113.192 36.1424 113.258 36.084 113.399 36.0694C113.805 35.9964 114.27 35.938 114.949 35.938C116.337 35.938 116.898 36.6242 116.898 37.7849V41.2159C116.898 41.3254 116.81 41.413 116.699 41.413Z" fill="#AFBEC3"/>
<path d="M119.933 41.486C119.564 41.486 118.84 41.4568 118.353 41.34C118.227 41.3108 118.146 41.2524 118.146 41.1429V40.7998C118.146 40.7122 118.227 40.6538 118.323 40.6538H118.353C118.84 40.7122 119.571 40.7633 119.933 40.7633C120.583 40.7633 120.915 40.5954 120.915 40.0625C120.915 39.7632 120.738 39.5807 120.169 39.2449L119.158 38.6536C118.545 38.2959 118.139 37.8725 118.139 37.252C118.139 36.23 118.914 35.9453 119.948 35.9453C120.509 35.9453 121.04 35.9964 121.505 36.0767C121.638 36.0913 121.697 36.1643 121.697 36.2738V36.6023C121.697 36.7191 121.631 36.7702 121.528 36.7702H121.498C121.151 36.741 120.509 36.6899 119.948 36.6899C119.386 36.6899 119.017 36.7629 119.017 37.2593C119.017 37.5513 119.246 37.7411 119.704 38.0039L120.693 38.5879C121.52 39.0697 121.793 39.4931 121.793 40.0698C121.793 41.0699 121.048 41.4933 119.925 41.4933" fill="#AFBEC3"/>
<path d="M67.0094 49.6837H66.7067C66.6329 50.0268 66.3819 50.2458 66.0275 50.2458C65.8429 50.2458 65.6583 50.1728 65.5401 50.0487C65.3629 49.8662 65.3408 49.6764 65.3408 49.0924C65.3408 48.5084 65.3629 48.3186 65.5401 48.1361C65.6657 48.012 65.8429 47.939 66.0275 47.939C66.3819 47.939 66.6255 48.1653 66.6993 48.5011H67.0094C66.9135 47.9755 66.5369 47.6689 66.0275 47.6689C65.7469 47.6689 65.4958 47.7711 65.3039 47.9609C65.0381 48.2237 65.0381 48.5011 65.0381 49.0924C65.0381 49.6837 65.0381 49.9538 65.3039 50.2239C65.4958 50.4137 65.7469 50.5159 66.0275 50.5159C66.5295 50.5159 66.9208 50.2093 67.0094 49.6837Z" fill="#AFBEC3"/>
<path fill-rule="evenodd" clip-rule="evenodd" d="M69.2463 49.0998C69.2463 49.6838 69.2242 49.8736 69.047 50.0488C68.9215 50.1729 68.7443 50.2532 68.5597 50.2532C68.3751 50.2532 68.1905 50.1802 68.0724 50.0488C67.8952 49.8663 67.873 49.6838 67.873 49.0998C67.873 48.5158 67.8952 48.326 68.0724 48.1435C68.1979 48.0194 68.3751 47.9464 68.5597 47.9464C68.7443 47.9464 68.9289 48.0194 69.047 48.1435C69.2242 48.326 69.2463 48.5158 69.2463 49.0998ZM69.5491 49.0998C69.5491 48.5085 69.5491 48.2311 69.2833 47.9683C69.0913 47.7785 68.8403 47.6763 68.5597 47.6763C68.2791 47.6763 68.0281 47.7785 67.8361 47.9683C67.5703 48.2311 67.5703 48.5085 67.5703 49.0998C67.5703 49.6911 67.5703 49.9685 67.8361 50.2313C68.0281 50.4211 68.2791 50.5233 68.5597 50.5233C68.8403 50.5233 69.0913 50.4211 69.2833 50.2313C69.5491 49.9685 69.5491 49.6911 69.5491 49.0998Z" fill="#AFBEC3"/>
<path d="M72.6869 50.4942V47.7056H72.3842L71.4834 49.6839L70.5605 47.7056H70.2578V50.4942H70.5605V48.3772L71.3505 50.0562H71.609L72.3842 48.3772V50.4942H72.6869Z" fill="#AFBEC3"/>
<path fill-rule="evenodd" clip-rule="evenodd" d="M75.1312 48.5232C75.1312 48.8955 74.8801 49.078 74.5331 49.078H73.8096V47.9684H74.5331C74.8875 47.9684 75.1312 48.1509 75.1312 48.5232ZM75.4339 48.5232C75.4339 48.0195 75.0795 47.7056 74.5627 47.7056H73.5068V50.4942H73.8096V49.3481H74.5627C75.0795 49.3481 75.4339 49.0269 75.4339 48.5232Z" fill="#AFBEC3"/>
<path d="M77.7522 50.4942V50.2241H76.3125V47.7056H76.0098V50.4942H77.7522Z" fill="#AFBEC3"/>
<path d="M80.0404 50.4942V50.2241H78.5859V49.224H79.8263V48.9539H78.5859V47.9684H80.0404V47.7056H78.2832V50.4942H80.0404Z" fill="#AFBEC3"/>
<path d="M81.8496 49.6474V47.7056H81.5469V49.6109C81.5469 50.0197 81.3402 50.2533 80.971 50.2533C80.7348 50.2533 80.624 50.173 80.5206 50.0708L80.3213 50.2752C80.4985 50.4504 80.6978 50.5234 80.971 50.5234C81.4879 50.5234 81.8496 50.1876 81.8496 49.6547" fill="#AFBEC3"/>
<path fill-rule="evenodd" clip-rule="evenodd" d="M84.1975 49.0998C84.1975 49.6838 84.1754 49.8736 83.9982 50.0488C83.8726 50.1729 83.6954 50.2532 83.5109 50.2532C83.3263 50.2532 83.1417 50.1802 83.0236 50.0488C82.8464 49.8663 82.8242 49.6838 82.8242 49.0998C82.8242 48.5158 82.8464 48.326 83.0236 48.1435C83.1491 48.0194 83.3263 47.9464 83.5109 47.9464C83.6954 47.9464 83.8726 48.0194 83.9982 48.1435C84.1754 48.326 84.1975 48.5158 84.1975 49.0998ZM84.5002 49.0998C84.5002 48.5085 84.5002 48.2311 84.2344 47.9683C84.0425 47.7785 83.7914 47.6763 83.5109 47.6763C83.2303 47.6763 82.9793 47.7785 82.7873 47.9683C82.5215 48.2311 82.5215 48.5085 82.5215 49.0998C82.5215 49.6911 82.5215 49.9685 82.7873 50.2313C82.9793 50.4211 83.2303 50.5233 83.5109 50.5233C83.7914 50.5233 84.0425 50.4211 84.2344 50.2313C84.5002 49.9685 84.5002 49.6911 84.5002 49.0998Z" fill="#AFBEC3"/>
<path d="M88.1401 50.4942V47.7056H87.8447V48.9539H86.501V47.7056H86.1982V50.4942H86.501V49.224H87.8447V50.4942H88.1401Z" fill="#AFBEC3"/>
<path fill-rule="evenodd" clip-rule="evenodd" d="M90.5325 49.0998C90.5325 49.6838 90.5103 49.8736 90.3331 50.0488C90.2076 50.1729 90.0304 50.2532 89.8458 50.2532C89.6612 50.2532 89.484 50.1802 89.3585 50.0488C89.1813 49.8663 89.1592 49.6838 89.1592 49.0998C89.1592 48.5158 89.1813 48.326 89.3585 48.1435C89.484 48.0194 89.6612 47.9464 89.8458 47.9464C90.0304 47.9464 90.2076 48.0194 90.3331 48.1435C90.5103 48.326 90.5325 48.5158 90.5325 49.0998ZM90.8352 49.0998C90.8352 48.5085 90.8352 48.2311 90.5694 47.9683C90.3774 47.7785 90.1338 47.6763 89.8458 47.6763C89.5579 47.6763 89.3142 47.7785 89.1222 47.9683C88.8564 48.2311 88.8564 48.5085 88.8564 49.0998C88.8564 49.6911 88.8564 49.9685 89.1222 50.2313C89.3142 50.4211 89.5653 50.5233 89.8458 50.5233C90.1264 50.5233 90.3774 50.4211 90.5694 50.2313C90.8352 49.9685 90.8352 49.6911 90.8352 49.0998Z" fill="#AFBEC3"/>
<path d="M93.25 49.7276C93.25 49.494 93.1614 49.3042 93.0137 49.1728C92.8956 49.0706 92.7627 49.0122 92.4969 48.9757L92.1868 48.9246C92.0391 48.9027 91.8915 48.8516 91.8028 48.7713C91.7142 48.6983 91.6773 48.5888 91.6773 48.4501C91.6773 48.1435 91.8988 47.9318 92.2754 47.9318C92.5707 47.9318 92.7627 48.0121 92.9325 48.1727L93.1245 47.9829C92.8808 47.7712 92.6445 47.6763 92.2828 47.6763C91.7216 47.6763 91.3746 47.9902 91.3746 48.4647C91.3746 48.6837 91.4411 48.8589 91.5887 48.983C91.7142 49.0852 91.8841 49.1582 92.1129 49.1947L92.4452 49.2458C92.6519 49.275 92.7258 49.2969 92.8144 49.3772C92.9103 49.4575 92.9473 49.5816 92.9473 49.7276C92.9473 50.0488 92.6962 50.2459 92.2754 50.2459C91.9579 50.2459 91.7438 50.1729 91.5075 49.9393L91.3008 50.1437C91.5666 50.4065 91.8471 50.5087 92.2754 50.5087C92.8587 50.5087 93.25 50.2094 93.25 49.7203" fill="#AFBEC3"/>
<path fill-rule="evenodd" clip-rule="evenodd" d="M95.5017 48.5232C95.5017 48.8955 95.2581 49.078 94.9037 49.078H94.1801V47.9684H94.9037C95.2581 47.9684 95.5017 48.1509 95.5017 48.5232ZM95.8118 48.5232C95.8118 48.0195 95.45 47.7056 94.9332 47.7056H93.8848V50.4942H94.1875V49.3481H94.9406C95.4574 49.3481 95.8192 49.0269 95.8192 48.5232H95.8118Z" fill="#AFBEC3"/>
<path d="M96.6904 47.7056H96.3877V50.4942H96.6904V47.7056Z" fill="#AFBEC3"/>
<path d="M99.1567 47.9684V47.7056H97.2148V47.9684H98.0344V50.4942H98.3371V47.9684H99.1567Z" fill="#AFBEC3"/>
<path fill-rule="evenodd" clip-rule="evenodd" d="M100.781 49.6036H99.7254L100.257 48.129L100.781 49.6036ZM101.416 50.4942L100.375 47.7056H100.124L99.083 50.4942H99.4079L99.6368 49.8591H100.87L101.099 50.4942H101.424H101.416Z" fill="#AFBEC3"/>
<path d="M103.616 50.4942V50.2241H102.169V47.7056H101.866V50.4942H103.616Z" fill="#AFBEC3"/>
<path fill-rule="evenodd" clip-rule="evenodd" d="M105.484 49.6036H104.428L104.96 48.129L105.484 49.6036ZM106.119 50.4942L105.086 47.7056H104.827L103.786 50.4942H104.111L104.34 49.8591H105.573L105.802 50.4942H106.127H106.119Z" fill="#AFBEC3"/>
<path fill-rule="evenodd" clip-rule="evenodd" d="M108.194 48.4793C108.194 48.8224 107.957 48.9903 107.633 48.9903H106.879V47.9683H107.633C107.957 47.9683 108.194 48.1435 108.194 48.4793ZM108.555 50.4941L107.884 49.2239C108.245 49.1509 108.496 48.8808 108.496 48.472C108.496 47.9902 108.149 47.6982 107.655 47.6982H106.569V50.4868H106.872V49.2458H107.551L108.194 50.4868H108.548L108.555 50.4941Z" fill="#AFBEC3"/>
<path d="M109.479 47.7056H109.176V50.4942H109.479V47.7056Z" fill="#AFBEC3"/>
<path fill-rule="evenodd" clip-rule="evenodd" d="M111.871 49.0998C111.871 49.6838 111.849 49.8736 111.672 50.0488C111.546 50.1729 111.369 50.2532 111.184 50.2532C111 50.2532 110.822 50.1802 110.697 50.0488C110.512 49.8663 110.498 49.6838 110.498 49.0998C110.498 48.5158 110.52 48.326 110.697 48.1435C110.822 48.0194 111 47.9464 111.184 47.9464C111.369 47.9464 111.546 48.0194 111.672 48.1435C111.849 48.326 111.871 48.5158 111.871 49.0998ZM112.166 49.0998C112.166 48.5085 112.166 48.2311 111.9 47.9683C111.708 47.7785 111.465 47.6763 111.177 47.6763C110.889 47.6763 110.645 47.7785 110.453 47.9683C110.188 48.2311 110.188 48.5085 110.188 49.0998C110.188 49.6911 110.188 49.9685 110.453 50.2313C110.645 50.4211 110.896 50.5233 111.177 50.5233C111.457 50.5233 111.708 50.4211 111.9 50.2313C112.166 49.9685 112.166 49.6911 112.166 49.0998Z" fill="#AFBEC3"/>
<path d="M115.577 49.7276C115.577 49.494 115.495 49.3042 115.34 49.1728C115.222 49.0706 115.089 49.0122 114.824 48.9757L114.513 48.9246C114.366 48.9027 114.218 48.8516 114.13 48.7713C114.041 48.6983 114.004 48.5888 114.004 48.4501C114.004 48.1435 114.226 47.9318 114.602 47.9318C114.897 47.9318 115.089 48.0121 115.259 48.1727L115.451 47.9829C115.215 47.7712 114.971 47.6763 114.609 47.6763C114.048 47.6763 113.701 47.9902 113.701 48.4647C113.701 48.6837 113.775 48.8589 113.915 48.983C114.041 49.0852 114.211 49.1582 114.432 49.1947L114.765 49.2458C114.971 49.275 115.045 49.2969 115.134 49.3772C115.222 49.4575 115.267 49.5816 115.267 49.7276C115.267 50.0488 115.016 50.2459 114.602 50.2459C114.285 50.2459 114.063 50.1729 113.827 49.9393L113.62 50.1437C113.886 50.4065 114.166 50.5087 114.587 50.5087C115.178 50.5087 115.562 50.2094 115.562 49.7203" fill="#AFBEC3"/>
<path fill-rule="evenodd" clip-rule="evenodd" d="M117.541 49.6036H116.485L117.017 48.129L117.541 49.6036ZM118.176 50.4942L117.142 47.7056H116.884L115.843 50.4942H116.168L116.397 49.8591H117.63L117.858 50.4942H118.183H118.176Z" fill="#AFBEC3"/>
<path d="M120.723 50.4942V47.7056H120.421V49.9321L118.922 47.7056H118.634V50.4942H118.937V48.2531L120.435 50.4942H120.723Z" fill="#AFBEC3"/>
<path d="M124.282 50.4942V50.2241H122.835V47.7056H122.532V50.4942H124.282Z" fill="#AFBEC3"/>
<path d="M126.615 49.5744V47.7056H126.312V49.5525C126.312 49.9759 126.039 50.2533 125.626 50.2533C125.212 50.2533 124.946 49.9759 124.946 49.5525V47.7056H124.644V49.5744C124.644 50.1292 125.057 50.5161 125.626 50.5161C126.194 50.5161 126.615 50.1292 126.615 49.5744Z" fill="#AFBEC3"/>
<path d="M127.693 47.7056H127.391V50.4942H127.693V47.7056Z" fill="#AFBEC3"/>
<path d="M130.218 49.7276C130.218 49.494 130.137 49.3042 129.982 49.1728C129.863 49.0706 129.731 49.0122 129.465 48.9757L129.155 48.9246C129.007 48.9027 128.859 48.8516 128.771 48.7713C128.682 48.6983 128.645 48.5888 128.645 48.4501C128.645 48.1435 128.867 47.9318 129.243 47.9318C129.539 47.9318 129.731 48.0121 129.9 48.1727L130.092 47.9829C129.849 47.7712 129.612 47.6763 129.251 47.6763C128.69 47.6763 128.343 47.9902 128.343 48.4647C128.343 48.6837 128.416 48.8589 128.557 48.983C128.682 49.0852 128.852 49.1582 129.073 49.1947L129.406 49.2458C129.612 49.275 129.686 49.2969 129.775 49.3772C129.863 49.4575 129.908 49.5816 129.908 49.7276C129.908 50.0488 129.649 50.2459 129.236 50.2459C128.918 50.2459 128.697 50.1729 128.461 49.9393L128.254 50.1437C128.52 50.4065 128.8 50.5087 129.221 50.5087C129.812 50.5087 130.196 50.2094 130.196 49.7203" fill="#AFBEC3"/>
</svg>
