<svg xmlns="http://www.w3.org/2000/svg" width="146" height="73" fill="none"><path fill="#AFBEC3" d="M48.296 26.44h3.078v8.038h2.747v-8.03h3.07v19.87h-3.078v-9.227h-2.746v9.227h-3.078v-19.87l.007-.008ZM60.188 26.44h3.077v17.294h3.888v2.577h-6.966v-19.87ZM70.872 26.448h4.057c1.024 6.62 2.04 13.242 3.064 19.87H75.12l-.486-3.54h-3.247c-.148 1.175-.288 2.358-.435 3.54h-2.96c.957-6.62 1.915-13.242 2.88-19.863v-.007Zm2.077 3.861c-.442 3.344-.84 6.687-1.26 10.038h2.63c-.457-3.343-.892-6.694-1.37-10.038ZM29.122 50.918c-2.599 0-5.132-.672-7.326-1.935-.361-.19-.567-.547-.788-.92l-.199-.328c-1.716-2.855-2.312-6.315-1.671-9.6 1.384 3.205 3.865 5.906 6.914 7.49a15.25 15.25 0 0 0 7.127 1.76c1.208 0 2.4-.14 3.55-.424 1.163-.27 2.319-.708 3.52-1.329a14.056 14.056 0 0 1-8.115 4.972c-.98.204-1.988.314-3.004.314h-.008Z"/><path fill="#AFBEC3" d="M19.675 47.706c-2.585-1.942-4.463-4.767-5.221-7.906-.928-3.79-.214-7.914 1.922-11.038 2.238-1.467 5.014-2.278 7.827-2.278 1.17 0 2.334.14 3.446.41-3.38 1.211-6.251 3.635-7.974 6.752a14.462 14.462 0 0 0-1.687 9.059c.229 1.694.803 3.402 1.68 4.993l.007.008ZM33.208 46.391c-1.51 0-3.004-.219-4.447-.65.832-.094 1.671-.218 2.46-.583 3.394-1.577 6.11-4.453 7.466-7.884 1.575-3.818 1.318-8.322-.626-12.009 2.665 2.124 4.499 5.147 5.095 8.453.685 3.68-.133 7.483-2.246 10.44-1.583 1.182-3.718 1.927-6.192 2.153-.501.051-1.01.073-1.51.073v.007Z"/><path fill="#AFBEC3" d="M38.274 35.325a14.87 14.87 0 0 0-6.531-7.738 14.914 14.914 0 0 0-9.396-1.847c-1.774.226-3.571.825-5.257 1.737a14.348 14.348 0 0 1 6.818-4.89 14.245 14.245 0 0 1 4.624-.76c2.946 0 5.81.883 8.07 2.482 2.055 3.168 2.659 7.22 1.672 11.001v.015ZM81.814 46.304v-9.22h1.413v3.73h1.267v-3.73h1.413v9.22h-1.413v-4.285h-1.267v4.285h-1.413ZM88.69 44.873c.082.212.251.321.509.321s.427-.11.508-.328c.081-.22.125-.591.125-1.124v-4.293c0-.438-.044-.752-.125-.956-.081-.197-.243-.3-.486-.3s-.412.103-.508.3c-.096.204-.147.518-.147.949v4.3c0 .54.044.92.125 1.131Zm2.077.876c-.324.445-.84.664-1.553.664-.715 0-1.237-.226-1.569-.671-.331-.445-.5-1.117-.5-2.015v-4.22c0-1.686.699-2.532 2.083-2.532.722 0 1.237.211 1.554.642.317.43.471 1.059.471 1.89v4.22c0 .898-.162 1.57-.486 2.015v.007ZM92.387 43.712v-.824h1.34v.927c0 .51.045.876.133 1.08.088.204.25.314.493.314s.405-.088.486-.256c.081-.167.118-.452.118-.839 0-.387-.073-.723-.213-1.015a3.558 3.558 0 0 0-.67-.905l-.685-.7a4.315 4.315 0 0 1-.751-1.03 2.743 2.743 0 0 1-.265-1.234c0-.759.147-1.328.441-1.693.295-.373.803-.555 1.525-.555.721 0 1.207.219 1.465.65.258.43.383 1.058.383 1.89v.57h-1.303v-.657c0-.446-.037-.767-.118-.964-.081-.197-.229-.292-.45-.292-.22 0-.375.073-.478.22-.096.145-.147.364-.147.656 0 .292.051.526.147.7.096.176.28.402.53.672l.766.825c.383.41.67.833.869 1.249.198.423.294.883.294 1.38 0 .86-.147 1.496-.442 1.912-.294.409-.802.62-1.531.62-.73 0-1.237-.226-1.524-.686-.287-.46-.435-1.131-.435-2.007l.022-.008ZM98.823 41.515h.486c.302 0 .493-.117.582-.343.088-.226.132-.664.132-1.307v-.175c0-.547-.051-.934-.147-1.168-.096-.233-.28-.35-.56-.35h-.493v3.343Zm-1.414 4.789v-9.22h2.136c.721 0 1.214.219 1.48.65.265.438.405 1.08.419 1.949v.197c0 .912-.132 1.606-.397 2.08-.265.475-.751.709-1.458.709h-.766v3.635h-1.414ZM102.527 37.091h1.414v9.22h-1.414v-9.22ZM106.032 46.304v-8h-1.09V37.09h3.542v1.212h-1.045v8h-1.414.007ZM111.636 43.537l-.626-4.628h-.022l-.567 4.628h1.215Zm-2.916 2.767 1.325-9.22h1.87l1.407 9.22h-1.318l-.221-1.643h-1.502l-.199 1.643h-1.362ZM114.397 46.304v-9.22h1.414v8.023h1.789v1.197h-3.21.007ZM121.288 43.537l-.625-4.628h-.023l-.567 4.628h1.215Zm-2.908 2.767 1.325-9.22h1.871l1.406 9.22h-1.318l-.221-1.643h-1.502l-.199 1.643h-1.362ZM125.471 40.865h.567c.177 0 .309-.036.398-.124.088-.08.147-.219.176-.416.037-.197.052-.496.052-.898v-.058c0-.496-.044-.825-.125-.978-.089-.154-.28-.234-.589-.234h-.479V40.865Zm.449 1.11-.456-.022v4.35h-1.414v-9.219h2.341c.486 0 .847.095 1.09.292.243.197.398.467.471.81.074.35.111.803.111 1.365 0 .563-.059.986-.177 1.278-.118.292-.339.489-.663.591.317.059.545.27.67.643.126.372.192 1.153.192 2.336 0 1.182.015 1.817.051 1.905h-1.413c-.037-.073-.052-1.168-.052-3.307 0-.409-.051-.679-.147-.818-.096-.131-.302-.204-.597-.211l-.007.007ZM129.358 37.091h1.414v9.22h-1.414v-9.22ZM133.579 44.873c.081.212.25.321.508.321.257 0 .427-.11.508-.328.081-.22.125-.591.125-1.124v-4.293c0-.438-.044-.752-.125-.956-.081-.197-.243-.3-.486-.3s-.413.103-.508.3c-.096.204-.148.518-.148.949v4.3c0 .54.045.92.126 1.131Zm2.076.876c-.324.445-.839.664-1.554.664-.714 0-1.237-.226-1.568-.671-.331-.445-.501-1.117-.501-2.015v-4.22c0-1.686.7-2.532 2.084-2.532.722 0 1.237.211 1.554.642.316.43.471 1.059.471 1.89v4.22c0 .898-.162 1.57-.486 2.015v.007ZM83.684 35.77c-.581 0-1.038-.226-1.37-.686-.33-.453-.493-1.16-.493-2.11v-4.008c0-.854.17-1.503.501-1.949.339-.445.869-.671 1.605-.671.913 0 1.495.335 1.738 1.007.147.402.22.956.22 1.657v.657h-1.317v-.963c0-.424-.044-.723-.133-.891-.088-.168-.257-.255-.508-.255-.25 0-.427.102-.523.306-.103.204-.154.57-.154 1.088v3.993c0 .606.044 1.022.14 1.263.088.24.272.358.537.358s.457-.125.567-.38c.11-.256.17-.686.17-1.292v-1.241h-.715V30.63h1.952v5.03h-.634l-.213-.906a1.186 1.186 0 0 1-.486.73c-.25.175-.538.27-.87.27l-.014.015ZM88.706 30.23h.567c.177 0 .31-.037.398-.125.088-.08.147-.219.177-.416.036-.197.051-.496.051-.898v-.058c0-.497-.044-.825-.125-.979-.088-.153-.28-.233-.59-.233h-.478V30.229Zm.45 1.116-.457-.022v4.351h-1.414v-9.22h2.342c.486 0 .847.095 1.09.292.243.197.397.467.47.81.074.35.111.803.111 1.366 0 .562-.059.985-.177 1.277-.117.292-.338.49-.662.591.324.059.545.27.67.643.125.372.191 1.153.191 2.336 0 1.182.015 1.817.052 1.905h-1.414c-.037-.073-.052-1.168-.052-3.307 0-.409-.051-.679-.147-.818-.096-.13-.302-.204-.596-.211l-.008.007ZM96.275 35.179c-.324.401-.847.598-1.561.598s-1.237-.197-1.561-.598c-.324-.402-.486-1.022-.486-1.87v-6.854h1.414v6.826c0 .481.022.78.066.883.044.102.103.197.17.285.066.087.198.131.404.131.206 0 .354-.058.442-.175a.897.897 0 0 0 .162-.446c.022-.175.03-.401.03-.678v-6.826h1.413v6.855c0 .847-.162 1.474-.486 1.876l-.007-.007ZM99.574 30.879h.486c.302 0 .493-.117.582-.343.088-.227.132-.665.132-1.307v-.175c0-.548-.051-.934-.147-1.168-.096-.234-.28-.35-.56-.35h-.493v3.343Zm-1.414 4.796v-9.22h2.136c.721 0 1.214.22 1.48.65.265.438.405 1.08.419 1.949v.197c0 .912-.132 1.606-.39 2.08-.265.475-.751.709-1.458.709h-.766v3.635H98.16ZM104.883 34.244c.081.212.251.322.508.322.258 0 .427-.11.508-.329.081-.219.126-.591.126-1.124V28.82c0-.438-.045-.752-.126-.956-.081-.197-.243-.3-.486-.3s-.412.103-.508.3c-.095.204-.147.518-.147.95v4.299c0 .54.044.92.125 1.131Zm2.077.869c-.324.445-.84.664-1.554.664-.714 0-1.237-.226-1.568-.671-.332-.446-.501-1.117-.501-2.015v-4.22c0-1.686.699-2.533 2.084-2.533.721 0 1.237.212 1.553.643.317.43.472 1.058.472 1.89v4.22c0 .898-.162 1.57-.486 2.015v.007Z"/></svg>