<svg xmlns="http://www.w3.org/2000/svg" width="209" height="73" fill="none"><path fill="#879EA4" d="M41.05 13.87c-.66 0-1.322.511-1.322 1.241 0 .73.515 1.314 1.249 1.314.66 0 1.322-.51 1.322-1.24s-.588-1.315-1.249-1.315Z"/><path fill="#879EA4" d="M41.05 13.87c-.66 0-1.322.511-1.322 1.241 0 .73.515 1.314 1.249 1.314.66 0 1.322-.51 1.322-1.24s-.588-1.315-1.249-1.315ZM37.305 16.279c-.881 0-1.615.73-1.615 1.606 0 .876.734 1.606 1.615 1.606s1.616-.73 1.616-1.606c0-.876-.735-1.606-1.616-1.606Z"/><path fill="#879EA4" d="M37.305 16.279c-.881 0-1.615.73-1.615 1.606 0 .876.734 1.606 1.615 1.606s1.616-.73 1.616-1.606c0-.876-.735-1.606-1.616-1.606ZM34.882 20.659c-.955.219-1.616 1.095-1.469 2.044.147.949 1.102 1.606 2.056 1.46.955-.22 1.616-1.095 1.469-2.044-.22-1.022-1.102-1.606-2.056-1.46ZM45.971 13.943v-.22c0-.583-.514-1.021-1.101-1.021h-.22c-.588 0-1.029.51-1.029 1.095v.219c0 .584.514 1.022 1.028 1.022h.22c.661-.146 1.102-.584 1.102-1.095ZM35.176 59.13c.661 0 1.322-.511 1.322-1.241 0-.73-.514-1.314-1.248-1.314-.661 0-1.322.51-1.322 1.24s.587 1.315 1.248 1.315Z"/><path fill="#879EA4" d="M35.176 59.13c.661 0 1.322-.511 1.322-1.241 0-.73-.514-1.314-1.248-1.314-.661 0-1.322.51-1.322 1.24s.587 1.315 1.248 1.315ZM38.848 56.72c.881 0 1.616-.73 1.616-1.605 0-.876-.735-1.606-1.616-1.606-.881 0-1.616.73-1.616 1.606 0 .876.735 1.606 1.616 1.606Z"/><path fill="#879EA4" d="M38.848 56.72c.881 0 1.616-.73 1.616-1.605 0-.876-.735-1.606-1.616-1.606-.881 0-1.616.73-1.616 1.606 0 .876.735 1.606 1.616 1.606ZM41.271 52.34c.955-.218 1.616-1.094 1.469-2.043-.147-.95-1.102-1.606-2.056-1.46-.955.219-1.616 1.095-1.47 2.044.148 1.022 1.102 1.606 2.057 1.46ZM30.182 59.057v.219c0 .584.514 1.022 1.101 1.022h.22c.588 0 1.029-.511 1.029-1.095v-.22c0-.583-.514-1.021-1.028-1.021h-.22c-.588.146-1.029.584-1.102 1.095ZM32.092 14.454c-.661.219-1.028 1.022-.735 1.606.22.657 1.028 1.022 1.616.73.66-.22 1.028-1.022.734-1.606-.22-.657-.955-.95-1.615-.73Z"/><path fill="#879EA4" d="M32.092 14.454c-.661.219-1.028 1.022-.735 1.606.22.657 1.028 1.022 1.616.73.66-.22 1.028-1.022.734-1.606-.22-.657-.955-.95-1.615-.73ZM29.595 18.104c-.808.292-1.175 1.24-.808 2.044.294.803 1.249 1.168 2.056.803.808-.292 1.175-1.241.808-2.044-.293-.73-1.248-1.095-2.056-.803Z"/><path fill="#879EA4" d="M29.595 18.104c-.808.292-1.175 1.24-.808 2.044.294.803 1.249 1.168 2.056.803.808-.292 1.175-1.241.808-2.044-.293-.73-1.248-1.095-2.056-.803ZM29.007 23.068a1.839 1.839 0 0 0-.587 2.482c.514.803 1.615 1.095 2.497.584a1.839 1.839 0 0 0 .587-2.482c-.587-.803-1.616-1.095-2.497-.584ZM36.645 12.629v-.146c-.22-.511-.808-.73-1.322-.584h-.147c-.514.219-.734.803-.587 1.387v.146c.22.51.807.73 1.322.584h.146c.514-.22.735-.876.588-1.387ZM44.062 58.546c.66-.22 1.028-1.022.734-1.606-.22-.657-1.028-1.022-1.615-.73-.661.219-1.029 1.022-.735 1.606.294.584 1.028.949 1.616.73Z"/><path fill="#879EA4" d="M44.062 58.546c.66-.22 1.028-1.022.734-1.606-.22-.657-1.028-1.022-1.615-.73-.661.219-1.029 1.022-.735 1.606.294.584 1.028.949 1.616.73ZM46.558 54.896c.808-.292 1.175-1.241.808-2.044-.294-.803-1.248-1.168-2.056-.803-.808.292-1.175 1.241-.808 2.044.294.73 1.248 1.095 2.056.803Z"/><path fill="#879EA4" d="M46.558 54.896c.808-.292 1.175-1.241.808-2.044-.294-.803-1.248-1.168-2.056-.803-.808.292-1.175 1.241-.808 2.044.294.73 1.248 1.095 2.056.803ZM47.146 49.932a1.839 1.839 0 0 0 .588-2.482c-.514-.803-1.616-1.095-2.497-.584a1.839 1.839 0 0 0-.588 2.482c.514.803 1.616 1.095 2.497.584ZM39.435 60.37v.147c.22.51.808.73 1.322.584h.147c.514-.22.734-.803.587-1.387v-.146c-.22-.511-.807-.73-1.321-.584h-.147c-.514.219-.735.876-.588 1.387ZM24.013 18.396c-.514.51-.587 1.24 0 1.825.514.51 1.322.584 1.836 0s.587-1.314 0-1.825c-.514-.511-1.248-.511-1.836 0Z"/><path fill="#879EA4" d="M24.013 18.396c-.514.51-.587 1.24 0 1.825.514.51 1.322.584 1.836 0s.587-1.314 0-1.825c-.514-.511-1.248-.511-1.836 0ZM23.132 22.776c-.66.657-.66 1.606 0 2.263.661.657 1.616.657 2.277 0 .66-.657.66-1.606 0-2.263-.661-.657-1.616-.657-2.277 0Z"/><path fill="#879EA4" d="M23.132 22.776c-.66.657-.66 1.606 0 2.263.661.657 1.616.657 2.277 0 .66-.657.66-1.606 0-2.263-.661-.657-1.616-.657-2.277 0ZM24.527 27.52c-.587.804-.367 1.899.44 2.483.809.584 1.91.365 2.498-.438.587-.803.367-1.898-.44-2.482-.735-.511-1.91-.292-2.498.438ZM27.612 14.965l-.147-.146a1.122 1.122 0 0 0-1.468 0l-.147.146c-.368.438-.368 1.095 0 1.46l.146.146c.441.365 1.029.365 1.47 0l.146-.146c.294-.365.294-1.022 0-1.46ZM52.066 54.604c.514-.511.587-1.241 0-1.825-.514-.511-1.322-.584-1.836 0-.514.51-.587 1.314 0 1.825a1.291 1.291 0 0 0 1.836 0Z"/><path fill="#879EA4" d="M52.066 54.604c.514-.511.587-1.241 0-1.825-.514-.511-1.322-.584-1.836 0-.514.51-.587 1.314 0 1.825a1.291 1.291 0 0 0 1.836 0ZM52.947 50.224c.661-.657.661-1.606 0-2.263-.66-.657-1.616-.657-2.277 0-.66.657-.66 1.606 0 2.263.661.657 1.69.657 2.277 0Z"/><path fill="#879EA4" d="M52.947 50.224c.661-.657.661-1.606 0-2.263-.66-.657-1.616-.657-2.277 0-.66.657-.66 1.606 0 2.263.661.657 1.69.657 2.277 0ZM51.626 45.479c.587-.803.367-1.898-.44-2.482-.809-.584-1.91-.365-2.498.438-.587.803-.367 1.898.441 2.482.734.51 1.836.292 2.497-.438ZM48.541 58.035l.147.146c.44.365 1.028.365 1.469 0l.147-.146c.367-.438.367-1.095 0-1.46l-.147-.146a1.122 1.122 0 0 0-1.47 0l-.146.146c-.367.365-.367 1.022 0 1.46ZM18.138 25.112c-.294.657 0 1.387.661 1.679.661.292 1.396 0 1.69-.657.293-.657 0-1.387-.662-1.68-.66-.218-1.395 0-1.689.658Z"/><path fill="#879EA4" d="M18.138 25.112c-.294.657 0 1.387.661 1.679.661.292 1.396 0 1.69-.657.293-.657 0-1.387-.662-1.68-.66-.218-1.395 0-1.689.658ZM18.946 29.492c-.294.803 0 1.752.881 2.044.882.292 1.763 0 2.056-.876.294-.803 0-1.752-.88-2.044-.808-.292-1.69 0-2.057.876Z"/><path fill="#879EA4" d="M18.946 29.492c-.294.803 0 1.752.881 2.044.882.292 1.763 0 2.056-.876.294-.803 0-1.752-.88-2.044-.808-.292-1.69 0-2.057.876ZM22.104 33.36a1.76 1.76 0 0 0 1.322 2.118 1.772 1.772 0 0 0 2.13-1.314 1.76 1.76 0 0 0-1.323-2.117c-1.028-.22-1.982.365-2.13 1.314ZM20.12 20.586h-.146c-.514-.22-1.102 0-1.322.584v.146c-.22.51 0 1.095.588 1.314h.147c.514.219 1.101 0 1.321-.584V21.9c.22-.511 0-1.095-.587-1.314ZM57.941 47.888c.294-.657 0-1.387-.66-1.68-.661-.291-1.396 0-1.69.658-.293.657 0 1.387.661 1.679.661.219 1.47 0 1.69-.657Z"/><path fill="#879EA4" d="M57.941 47.888c.294-.657 0-1.387-.66-1.68-.661-.291-1.396 0-1.69.658-.293.657 0 1.387.661 1.679.661.219 1.47 0 1.69-.657ZM57.133 43.508c.294-.803 0-1.752-.88-2.044-.809-.292-1.763 0-2.057.876-.294.876 0 1.752.881 2.044.808.292 1.763 0 2.056-.876Z"/><path fill="#879EA4" d="M57.133 43.508c.294-.803 0-1.752-.88-2.044-.809-.292-1.763 0-2.057.876-.294.876 0 1.752.881 2.044.808.292 1.763 0 2.056-.876ZM54.048 39.639a1.76 1.76 0 0 0-1.321-2.117 1.772 1.772 0 0 0-2.13 1.314 1.76 1.76 0 0 0 1.322 2.117 1.772 1.772 0 0 0 2.13-1.314ZM56.032 52.414h.147c.514.219 1.102 0 1.322-.584v-.146c.22-.511 0-1.095-.588-1.314h-.147c-.514-.22-1.101 0-1.321.584v.146c-.147.51 0 1.095.587 1.314ZM15.274 33.58c0 .657.515 1.314 1.249 1.314.734 0 1.322-.511 1.322-1.241 0-.657-.514-1.314-1.175-1.314s-1.396.51-1.396 1.24Z"/><path fill="#879EA4" d="M15.274 33.58c0 .657.515 1.314 1.249 1.314.734 0 1.322-.511 1.322-1.241 0-.657-.514-1.314-1.175-1.314s-1.396.51-1.396 1.24ZM17.771 37.23c0 .876.735 1.606 1.616 1.606.881 0 1.616-.73 1.616-1.606 0-.876-.735-1.606-1.616-1.606-.881 0-1.616.73-1.616 1.606Z"/><path fill="#879EA4" d="M17.771 37.23c0 .876.735 1.606 1.616 1.606.881 0 1.616-.73 1.616-1.606 0-.876-.735-1.606-1.616-1.606-.881 0-1.616.73-1.616 1.606ZM22.104 39.712c.22.949 1.102 1.606 2.057 1.46.954-.22 1.615-1.095 1.468-2.044-.146-.95-1.101-1.606-2.056-1.46-.954.146-1.616 1.022-1.469 2.044ZM15.348 28.616h-.22c-.588 0-1.028.51-1.028 1.095v.219c0 .584.514 1.022 1.101 1.022h.22c.588 0 1.029-.511 1.029-1.022v-.22c0-.656-.514-1.094-1.102-1.094ZM60.879 39.42c0-.657-.514-1.314-1.249-1.314-.734 0-1.321.511-1.321 1.241 0 .657.514 1.314 1.175 1.314.66 0 1.321-.511 1.395-1.241Z"/><path fill="#879EA4" d="M60.879 39.42c0-.657-.514-1.314-1.249-1.314-.734 0-1.321.511-1.321 1.241 0 .657.514 1.314 1.175 1.314.66 0 1.321-.511 1.395-1.241ZM58.382 35.77c0-.876-.735-1.606-1.616-1.606-.881 0-1.616.73-1.616 1.606 0 .876.735 1.606 1.616 1.606.881 0 1.616-.73 1.616-1.606Z"/><path fill="#879EA4" d="M58.382 35.77c0-.876-.735-1.606-1.616-1.606-.881 0-1.616.73-1.616 1.606 0 .876.735 1.606 1.616 1.606.881 0 1.616-.73 1.616-1.606ZM54.05 33.288c-.221-.95-1.102-1.606-2.057-1.46-.955.219-1.616 1.095-1.469 2.044.22.949 1.102 1.606 2.057 1.46.954-.146 1.615-1.022 1.468-2.044ZM60.805 44.384h.22c.587 0 1.028-.511 1.028-1.095v-.22c0-.583-.514-1.021-1.101-1.021h-.22c-.588 0-1.029.51-1.029 1.022v.219c0 .657.514 1.095 1.102 1.095ZM15.935 42.486c.22.657 1.028 1.022 1.616.73.66-.219 1.028-1.022.734-1.606-.22-.657-1.028-1.022-1.615-.73-.661.22-1.028.95-.735 1.606Z"/><path fill="#879EA4" d="M15.935 42.486c.22.657 1.028 1.022 1.616.73.66-.219 1.028-1.022.734-1.606-.22-.657-1.028-1.022-1.615-.73-.661.22-1.028.95-.735 1.606ZM19.608 44.895c.293.803 1.248 1.168 2.056.803.807-.292 1.175-1.241.807-2.044-.293-.803-1.248-1.168-2.056-.803-.807.365-1.175 1.314-.807 2.044Z"/><path fill="#879EA4" d="M19.608 44.895c.293.803 1.248 1.168 2.056.803.807-.292 1.175-1.241.807-2.044-.293-.803-1.248-1.168-2.056-.803-.807.365-1.175 1.314-.807 2.044ZM24.527 45.48c.514.802 1.616 1.094 2.497.583a1.839 1.839 0 0 0 .587-2.482c-.514-.876-1.615-1.095-2.496-.584-.808.584-1.102 1.606-.588 2.482ZM14.026 37.887h-.147c-.514.219-.734.803-.587 1.314v.146c.22.51.808.73 1.395.584h.147c.514-.22.734-.803.587-1.314v-.146c-.22-.511-.807-.73-1.395-.584ZM60.218 30.514c-.22-.657-1.028-1.022-1.616-.73-.66.219-1.028 1.022-.734 1.606.22.657 1.028 1.022 1.616.73.66-.22 1.028-.95.734-1.606Z"/><path fill="#879EA4" d="M60.218 30.514c-.22-.657-1.028-1.022-1.616-.73-.66.219-1.028 1.022-.734 1.606.22.657 1.028 1.022 1.616.73.66-.22 1.028-.95.734-1.606ZM56.546 28.105c-.294-.803-1.249-1.168-2.056-.876-.808.292-1.175 1.24-.808 2.044.293.803 1.248 1.168 2.056.803.734-.292 1.102-1.168.808-2.044"/><path fill="#879EA4" d="M56.546 28.105c-.294-.803-1.249-1.168-2.056-.876-.808.292-1.175 1.24-.808 2.044.293.803 1.248 1.168 2.056.803.734-.292 1.102-1.168.808-2.044M51.552 27.52c-.514-.802-1.616-1.094-2.497-.583a1.839 1.839 0 0 0-.587 2.482c.514.803 1.615 1.095 2.496.584.808-.584 1.102-1.606.588-2.482ZM62.053 35.113h.147c.514-.22.734-.803.588-1.314v-.146c-.22-.511-.808-.73-1.396-.584h-.147c-.514.219-.734.803-.587 1.314v.146c.294.51.881.73 1.395.584ZM19.9 50.443c.515.511 1.25.584 1.837 0 .514-.51.587-1.314 0-1.825-.588-.51-1.322-.584-1.836 0-.514.511-.588 1.314 0 1.825Z"/><path fill="#879EA4" d="M19.9 50.443c.515.511 1.25.584 1.837 0 .514-.51.587-1.314 0-1.825-.588-.51-1.322-.584-1.836 0-.514.511-.588 1.314 0 1.825ZM24.234 51.319c.66.657 1.616.657 2.276 0 .661-.657.661-1.606 0-2.263-.66-.657-1.615-.657-2.276 0-.661.657-.661 1.606 0 2.263Z"/><path fill="#879EA4" d="M24.234 51.319c.66.657 1.616.657 2.276 0 .661-.657.661-1.606 0-2.263-.66-.657-1.615-.657-2.276 0-.661.657-.661 1.606 0 2.263ZM29.007 49.932c.808.584 1.91.365 2.497-.438.587-.803.367-1.898-.44-2.482-.809-.584-1.91-.365-2.498.438-.514.803-.293 1.898.44 2.482ZM16.376 46.939l-.146.146c-.368.365-.368 1.022 0 1.46l.146.146c.441.365 1.102.365 1.47 0l.146-.146a1.105 1.105 0 0 0 0-1.46l-.147-.146c-.367-.365-1.028-.365-1.469 0ZM56.252 22.557c-.514-.51-1.248-.584-1.836 0-.514.511-.587 1.314 0 1.825.588.511 1.322.584 1.836 0s.514-1.314 0-1.825Z"/><path fill="#879EA4" d="M56.252 22.557c-.514-.51-1.248-.584-1.836 0-.514.511-.587 1.314 0 1.825.588.511 1.322.584 1.836 0s.514-1.314 0-1.825ZM51.92 21.68c-.661-.656-1.616-.656-2.277 0-.66.658-.66 1.607 0 2.264.661.657 1.616.657 2.277 0 .66-.657.66-1.606 0-2.263Z"/><path fill="#879EA4" d="M51.92 21.68c-.661-.656-1.616-.656-2.277 0-.66.658-.66 1.607 0 2.264.661.657 1.616.657 2.277 0 .66-.657.66-1.606 0-2.263ZM47.073 23.068c-.808-.584-1.91-.365-2.497.438-.587.803-.367 1.898.44 2.482.809.584 1.91.365 2.498-.438.587-.803.367-1.898-.441-2.482ZM59.703 26.06l.147-.145a1.105 1.105 0 0 0 0-1.46l-.147-.146c-.44-.365-1.101-.365-1.468 0l-.147.146a1.105 1.105 0 0 0 0 1.46l.147.146c.367.365 1.028.365 1.468 0ZM26.658 56.283c.66.292 1.395 0 1.689-.657.293-.657 0-1.387-.661-1.68-.661-.291-1.396 0-1.69.658-.293.657 0 1.387.662 1.679Z"/><path fill="#879EA4" d="M26.658 56.283c.66.292 1.395 0 1.689-.657.293-.657 0-1.387-.661-1.68-.661-.291-1.396 0-1.69.658-.293.657 0 1.387.662 1.679ZM30.99 55.48c.807.292 1.762 0 2.056-.876.293-.876 0-1.752-.882-2.044-.807-.292-1.762 0-2.056.876-.294.876 0 1.752.881 2.044Z"/><path fill="#879EA4" d="M30.99 55.48c.807.292 1.762 0 2.056-.876.293-.876 0-1.752-.882-2.044-.807-.292-1.762 0-2.056.876-.294.876 0 1.752.881 2.044ZM34.882 52.414a1.772 1.772 0 0 0 2.13-1.314 1.76 1.76 0 0 0-1.322-2.117 1.772 1.772 0 0 0-2.13 1.314 1.76 1.76 0 0 0 1.322 2.117ZM22.104 54.312v.146c-.22.511 0 1.095.588 1.314h.147c.514.219 1.101 0 1.322-.584v-.146c.22-.511 0-1.095-.588-1.314h-.147c-.514-.146-1.101 0-1.322.584ZM49.496 16.717a1.267 1.267 0 0 0-1.689.657c-.294.657 0 1.387.661 1.679.661.292 1.395 0 1.69-.657.293-.657 0-1.387-.662-1.68Z"/><path fill="#879EA4" d="M49.496 16.717a1.267 1.267 0 0 0-1.689.657c-.294.657 0 1.387.661 1.679.661.292 1.395 0 1.69-.657.293-.657 0-1.387-.662-1.68ZM45.163 17.52c-.807-.292-1.762 0-2.056.876-.294.803 0 1.752.882 2.044.807.292 1.762 0 2.056-.876.293-.803 0-1.752-.882-2.044Z"/><path fill="#879EA4" d="M45.163 17.52c-.807-.292-1.762 0-2.056.876-.294.803 0 1.752.882 2.044.807.292 1.762 0 2.056-.876.293-.803 0-1.752-.882-2.044ZM41.197 20.586a1.772 1.772 0 0 0-2.13 1.314 1.76 1.76 0 0 0 1.323 2.117 1.772 1.772 0 0 0 2.13-1.314 1.76 1.76 0 0 0-1.323-2.117ZM54.122 18.688v-.146c.22-.511 0-1.095-.587-1.314h-.147c-.514-.22-1.102 0-1.322.584v.146c-.22.51 0 1.095.588 1.314h.147c.44.146 1.101 0 1.321-.584Z"/><path fill="#AFBEC3" d="m85.7 29.2-3.01 11.096L79.605 29.2h-3.892l-.808 13.724h2.57l.22-11.315 3.085 11.315h3.231l3.158-11.315.22 11.315h2.938L89.739 29.2m10.649 1.533-.661-2.19-5.288 1.971.368 1.314 5.654-1.095h-.073Zm-1.543 9.709a5.967 5.967 0 0 1-1.835.292c-1.029 0-1.175-.584-1.175-1.752v-5.913h-3.011v6.424c0 1.168 0 2.044.514 2.701.44.657 1.101 1.022 2.35 1.022 1.248 0 2.056-.292 3.451-1.095v.949h2.791v-9.855h-3.011v7.3l-.073-.073Zm10.355.657c-.587 0-.881-.146-1.101-.438-.221-.219-.221-.365-.221-1.971v-3.65h2.57v-1.971h-2.57v-2.701h-3.011v2.774l-1.615.292v1.606h1.615v3.942c0 1.679.147 2.409.368 2.92.44.803 1.395 1.241 2.57 1.241 1.175 0 1.836-.219 3.084-.584l-.294-1.825c-.661.146-1.101.219-1.468.219m9.399-.511a5.958 5.958 0 0 1-1.835.292c-1.029 0-1.175-.584-1.175-1.752v-5.913h-3.011v6.424c0 1.168 0 2.044.514 2.701.44.657 1.101 1.022 2.276 1.022 1.175 0 2.057-.292 3.452-1.095v.949h2.79v-9.855h-3.011v7.3-.073Zm10.282-7.519c-1.102 0-2.791.292-4.553.803l.293 1.752c1.322-.219 2.056-.292 2.791-.292 1.469 0 1.689.365 1.689 1.606v.219c-2.056 0-3.819.146-4.773 1.022-.515.511-.661 1.168-.661 2.19 0 2.044 1.028 3.066 2.57 3.066 1.542 0 1.762-.438 3.011-1.095v.949h2.717v-5.694c0-1.898-.147-2.555-.514-3.285-.367-.949-1.175-1.241-2.57-1.241Zm.293 7.884s-.807.219-1.468.219c-.661 0-1.102-.365-1.102-1.314 0-.949.661-1.46 2.57-1.533v2.628ZM143.568 29.2h-10.207v1.241h4.332v12.556h1.616V30.441h4.333V29.2h-.074Zm2.864 3.869c-2.57 0-4.186 2.044-4.186 5.475 0 3.431 1.543 4.745 3.819 4.745 2.277 0 2.056-.219 4.039-1.168l-.294-.949c-1.615.584-2.423.73-3.378.73-1.615 0-2.497-1.095-2.497-3.212v-.365h6.243v-.511c0-3.139-1.322-4.745-3.819-4.745m-2.35 4.161c.22-1.971 1.101-2.993 2.57-2.993 1.469 0 2.056.876 2.056 2.847l-4.626.219v-.073Zm9.987-3.139v-.876h-1.542v9.709h1.542V35.04c.955-.438 1.616-.584 2.497-.584h.514v-1.387h-.514c-.881 0-1.615.292-2.497 1.022Zm6.169 0v-.876h-1.542v9.709h1.542V35.04c.955-.438 1.616-.584 2.497-.584h.514v-1.387h-.514c-.881 0-1.616.292-2.497 1.022Zm8.151-1.022c-1.028 0-2.203.219-3.745.657l.22 1.095a15.878 15.878 0 0 1 2.938-.292c1.909 0 1.836.73 1.836 2.336v.365c-1.91 0-2.938 0-3.672.219-1.102.292-1.836 1.168-1.836 2.774s1.248 2.993 2.497 2.993c1.248 0 1.762-.365 3.011-1.095v.803h1.542v-6.278c0-1.752-.147-2.409-.514-2.92-.514-.511-1.249-.73-2.277-.73m1.102 8.176s-1.616.73-2.57.73c-.955 0-1.322-.584-1.322-1.606 0-1.022.734-1.898 3.892-2.044v2.92Zm5.214-5.475c0-.949.661-1.46 1.762-1.46 1.102 0 1.249.146 2.203.292l.221-1.095c-1.028-.365-1.91-.511-2.57-.511-1.983 0-3.232 1.095-3.232 2.847s1.396 2.336 3.085 2.847c1.321.438 1.615.73 1.615 1.606 0 .876-.808 1.606-2.276 1.606-1.469 0-1.322 0-2.277-.292l-.294 1.095c1.175.292 1.983.438 2.938.438 2.13 0 3.451-1.095 3.451-3.066 0-3.285-4.773-2.044-4.773-4.307m7.858 0c0-.949.661-1.46 1.762-1.46 1.102 0 1.249.146 2.203.292l.221-1.095c-1.029-.365-1.91-.511-2.644-.511-1.983 0-3.231 1.095-3.231 2.847s1.395 2.336 3.084 2.847c1.322.438 1.616.73 1.616 1.606 0 .876-.808 1.606-2.277 1.606s-1.322 0-2.276-.292l-.294 1.095c1.175.292 1.983.438 2.937.438 2.13 0 3.452-1.095 3.452-3.066.147-3.285-4.7-2.044-4.7-4.307m12.925-1.898c-.441-.584-1.102-.803-2.203-.803-1.102 0-2.204.219-3.746.657l.221 1.095a15.868 15.868 0 0 1 2.937-.292c1.909 0 1.836.73 1.836 2.336v.365c-1.909 0-2.937 0-3.672.219-1.101.292-1.836 1.168-1.836 2.774s1.249 2.993 2.497 2.993c1.249 0 1.763-.365 3.011-1.095v.803h1.542v-6.278c0-1.679-.147-2.263-.587-2.847m-1.028 7.446s-1.616.73-2.497.73c-.882 0-1.322-.584-1.322-1.606 0-1.022.661-1.898 3.892-2.044v2.92h-.073Z"/></svg>