<svg xmlns="http://www.w3.org/2000/svg" width="173" height="74" fill="none"><path fill="#AFBEC3" d="M26.288 35.971c3.37-.414 5.993-3.492 5.993-7.23 0-2.345-1.037-4.44-2.645-5.764-2.044.895-3.488 3.064-3.488 5.587v7.407h.148"/><path fill="#879EA4" d="M10.755 30.288c0 7.215 5.437 13.15 12.444 13.957h.297V29.933c0-4.876-2.993-9.05-7.244-10.789a14.017 14.017 0 0 0-5.504 11.144M110.188 36.66h-1.867c-1.37 0-2.052-.585-2.052-1.747 0-1.243 1.089-1.872 3.267-1.872 1.556 0 3.104.252 4.644.748v-1.991a17.723 17.723 0 0 0-4.644-.622c-3.629 0-5.444 1.244-5.444 3.73 0 2.486 1.407 3.855 4.229 3.855h1.867c1.452 0 2.185.578 2.185 1.74 0 1.242-1.037 1.864-3.126 1.864-1.57 0-3.118-.252-4.652-.747v1.99c1.534.415 3.089.622 4.652.622 3.615 0 5.43-1.243 5.43-3.73 0-2.486-1.497-3.855-4.482-3.855M125.365 41.107c-1.104.843-2.452 1.273-4.045 1.273-1.592 0-2.362-.703-2.362-2.11 0-1.405.999-2.116 2.999-2.116 1.141 0 2.274.082 3.415.252v2.708l-.007-.007Zm-3.526-9.916c-1.341 0-2.719.207-4.133.622v1.864c1.414-.414 2.792-.621 4.133-.621 2.348 0 3.526.755 3.526 2.25v1.235a24.103 24.103 0 0 0-3.415-.252c-3.533 0-5.304 1.34-5.304 4.019 0 2.678 1.556 3.944 4.667 3.944 1.533 0 2.955-.43 4.259-1.295l.8 1.295h1.296v-9.006c0-2.7-1.94-4.055-5.829-4.055ZM133.32 26.462h-2.303v17.783h2.303V26.462ZM145.638 40.67c-1.2 1.103-2.451 1.658-3.777 1.658-1.926 0-2.889-.97-2.889-2.908v-8.23h-2.296v8.193c0 3.24 1.503 4.861 4.503 4.861 1.608 0 3.193-.554 4.778-1.664l.4 1.665h1.578V31.19h-2.297v9.487-.008ZM159.934 41.847c-.926.326-1.993.481-3.185.481-2.63 0-3.948-1.658-3.948-4.958 0-2.797 1.318-4.196 3.948-4.196 1.192 0 2.259.222 3.185.666v8.007Zm0-15.385v5.35a8.276 8.276 0 0 0-3.2-.621c-4.133 0-6.2 2.087-6.2 6.268 0 4.529 1.948 6.793 5.844 6.793 2.319 0 4.274-.259 5.859-.784V26.47h-2.303v-.008Z"/><path fill="#AFBEC3" d="M56.672 40.67c-1.193 1.103-2.452 1.658-3.77 1.658-1.927 0-2.89-.97-2.89-2.908v-8.23H47.71v8.193c0 3.24 1.504 4.861 4.503 4.861 1.608 0 3.193-.554 4.778-1.664l.4 1.665h1.578V31.19h-2.304v9.487l.008-.008ZM64.753 31.184h-2.304v13.053h2.304V31.184ZM69.782 31.19h-1.548v13.055h2.304v-9.487c.97-1.103 2.237-1.65 3.8-1.65V31.19c-1.615 0-2.985.555-4.133 1.665l-.415-1.665h-.008ZM81.396 42.38c-2.615 0-3.918-1.57-3.918-4.714 0-3.145 1.31-4.618 3.918-4.618s3.918 1.54 3.918 4.618c0 3.078-1.303 4.714-3.918 4.714Zm1.46-11.093 1.888-1.894h-2.97l-1.252 1.827c-3.563.296-5.34 2.457-5.34 6.49.014 4.344 2.088 6.512 6.222 6.512 4.133 0 6.222-2.168 6.222-6.512 0-3.81-1.586-5.95-4.763-6.43M96.596 31.19c-1.608 0-3.074.556-4.407 1.666l-.408-1.665h-1.555v13.054h2.303v-9.487c1.193-1.103 2.445-1.65 3.763-1.65 1.933 0 2.904.969 2.904 2.908v8.229h2.303v-8.192c0-3.241-1.63-4.862-4.888-4.862M42.517 41.603c-.904.451-1.955.673-3.155.673-2.637 0-3.948-1.546-3.948-4.647 0-3.1 1.392-4.521 4.177-4.521 1.17 0 2.14.096 2.933.296v8.199h-.007ZM33.14 37.65c0 4.403 2.066 6.608 6.207 6.608a8.074 8.074 0 0 0 3.17-.621v6.77h2.304V31.717a24.403 24.403 0 0 0-5.133-.532c-4.363 0-6.548 2.153-6.548 6.467ZM64.753 27.276h-2.304v2.176h2.304v-2.176Z"/></svg>